<?xml version="1.0" encoding="UTF-8"?>
<svg id="Layer_1" data-name="Layer 1" xmlns="http://www.w3.org/2000/svg" viewBox="0 0 576.11 564.64">
  <style>
    path { fill: #000000; }
    @media (prefers-color-scheme: dark) { path { fill: #ffffff; } }
  </style>
  <path d="M275.92,564.64h-.05c-.19-3.03,1.15-5.97,3.47-8.69,9.18-10.76,20.7-20.36,35.01-23.75,36.64-8.66,59.97-16.3,92.55-35.45,21.13-12.42,39.34-28,56.43-45.83,41.1-42.9,68.34-97.06,78.01-156.98-13.38,5.48-24.38,27.85-31.04,39.96-17.14,31.18-31.99,58.05-59.51,81.45-31.18,26.51-70.34,40.82-111.5,32.59-3.23-6.99,1.83-13.52,7.16-17.75,5.97-4.74,11.41-9.05,17.76-13.25,19.76-13.06,49.23-37.18,50.02-63.02-1.26.78-3.35,2.22-4.44,3.49-25.01,29.24-69.18,29.96-102.32,49.81-39.38,23.58-57.6,59.35-65.39,103.52-2.89,16.37-3.13,32.23-3.84,48.84-.03.61-.69,2.42-1.27,2.56s-2.17.2-2.87.05l-15.39-3.33c-14.74-3.19-28.46-8.19-42.42-13.72-19.55-7.73-37.08-17.64-54.63-29.37-41.51-27.74-73.4-66.43-95.16-111.4C7.15,364.37-1.9,317.3.33,273.02c2.37-46.91,17.88-94.25,42.54-134.33,13.13-21.34,31.36-42.36,49.95-59.19,35.5-32.13,87.25-57.22,135.11-63.92,69.18-12.61,145.07,7.02,200.73,50.57,20.57-18.84,41.9-34.85,64.56-49.94l24.34-16.2c28.49,51.25,48.37,117.15,55.74,175.17,2.85,22.44,3.49,57.87,2.08,80.21-5.74,90.81-42.61,174.08-110.81,234.94-35.87,32.01-78.73,53.94-125.3,65.7-17.2,4.34-33.47,6.41-50.91,7.11-4.31.17-8.86.54-12.44,1.52ZM335.48,171.54l24.53-32.75c-33.48-22.52-73.89-30.73-114.15-25.36-23.34,3.11-44.44,11.8-64.62,23.63-13.29,7.8-21.22,15.33-32.16,25.8-6.79,6.5-12.2,13.62-17.54,21.54-24.07,35.71-36.39,77.79-31.32,121.22,4.21,36.09,19.27,69.59,42.42,97.17,14.14,16.84,30.62,29.36,49.45,40.9l-4.94,29.53c-14.05-7.52-26.35-14.24-38.18-23.58-47.98-37.92-76.97-94.73-79.23-155.88-.7-18.83,1.35-35.64,5.55-53.8,8.72-37.69,27.59-71.78,54.59-99.26,65.91-67.07,170.88-77.34,249.03-24.83l27.57-29.58c-9.89-8.13-20.18-14.28-31.46-19.84-20.87-10.29-41.82-17.57-64.67-21.44-31.12-5.27-61-4.82-92.01,2.17-62.3,14.04-117.14,52.53-150.7,107.12-17.6,28.63-29.9,59.91-34.82,93.22-7.14,48.31-1.65,94.03,17.94,138.59,30.2,68.68,86.95,117.36,159.55,139.62l3.55-30.21c3.01-25.6,7.77-50.06,13.61-75.24,17.57-75.77,49.73-157.92,92.14-223.55-2.38-2.86-5.3-3.41-8.29-4.71-10.55-4.61-20.86-8.18-32.46-9.24-39.97-3.65-76.71,16.91-96.06,51.76-9.27,16.7-14.4,34.66-13.55,54.05,2.37,54.44,31.91,63.73,33.82,89.01.64,8.55.61,16.08-1.77,24.63-33.97-24.84-56.81-59.52-60.96-100.82-3.56-35.45,7.09-71.85,28.79-99.53,39.82-50.79,111.35-62.97,166.36-30.34ZM506.79,287.62c13.03-12.63,20.14-19.63,38.13-20.98,8.03-76.32-6.91-154.74-38.74-224.23l-32.7,23.7c-8.17,5.92-15.47,12.31-23.41,19.39,40.25,37.56,59.6,97.64,60.34,150.7.24,17.42-1.74,33.75-3.62,51.42ZM453.28,371.92c16.27-21.02,6.49-17.48,13.92-40.01,11.61-35.21,16.2-71.89,13.3-109.02-3.29-41.98-19.77-88.25-51.73-117-3.66,3.06-6.38,5.78-9.49,9.11l-17.2,18.37c55.33,52.33,69.21,130.45,50.45,201.8-3.74,14.22-9.58,26.36-16.01,39.27-5.31,10.68-10.74,20.05-18.66,29.29,12.4-6.69,26.97-20.87,35.43-31.8ZM404.61,326.99l7.46-8.47,11.38,7.4c11.41-42.14,9.64-83.85-7.94-123.86-7.63-17.36-18.2-32.61-32.32-45.62-9.02,10.91-16.59,21.58-24.27,32.91,14.8,15.39,25.6,32.43,31.96,52.48,10.68,28.94,10.48,59.85-.23,88.64l-4.51,12.14c7.36-3.87,12.98-9.37,18.48-15.62ZM310.32,373.94c6-2.49,12.89-3.81,18.47-7.4,6.81-4.39,13.25-10.29,18.24-16.69,31.15-39.89,28.51-97.04-4.65-135.08-11.29,16.86-19.75,32.82-28.33,49.83-13.84,27.36-25.39,54.78-35.49,83.79-6.18,19.31-13.14,37.54-16.42,57.79,15.54-14.26,29.94-24.97,48.18-32.24Z"/>
</svg>
