<?xml version="1.0" encoding="UTF-8"?>
<svg xmlns="http://www.w3.org/2000/svg" xmlns:xlink="http://www.w3.org/1999/xlink" viewBox="0 0 1857.42 564.64">
  <defs>
    <style>
      .cls-1 {
        fill: currentColor;
        stroke: #currentColor;
        stroke-miterlimit: 10;
      }

      .cls-2 {
        fill: url(#Gold_Radial);
      }
    </style>
    <radialGradient id="Gold_Radial" data-name="Gold Radial" cx="288.05" cy="282.32" fx="288.05" fy="282.32" r="285.2" gradientUnits="userSpaceOnUse">
      <stop offset="0" stop-color="#fffbcc"/>
      <stop offset=".11" stop-color="#faf1ba"/>
      <stop offset=".34" stop-color="#efd98e"/>
      <stop offset=".37" stop-color="#eed688"/>
      <stop offset=".69" stop-color="#ebbb10"/>
      <stop offset="1" stop-color="#c3922e"/>
    </radialGradient>
  </defs>
  <g id="Logo">
    <path class="cls-2" d="M275.92,564.64h-.05c-.19-3.03,1.15-5.97,3.47-8.69,9.18-10.76,20.7-20.36,35.01-23.75,36.64-8.66,59.97-16.3,92.55-35.45,21.13-12.42,39.34-28,56.43-45.83,41.1-42.9,68.34-97.06,78.01-156.98-13.38,5.48-24.38,27.85-31.04,39.96-17.14,31.18-31.99,58.05-59.51,81.45-31.18,26.51-70.34,40.82-111.5,32.59-3.23-6.99,1.83-13.52,7.16-17.75,5.97-4.74,11.41-9.05,17.76-13.25,19.76-13.06,49.23-37.18,50.02-63.02-1.26.78-3.35,2.22-4.44,3.49-25.01,29.24-69.18,29.96-102.32,49.81-39.38,23.58-57.6,59.35-65.39,103.52-2.89,16.37-3.13,32.23-3.84,48.84-.03.61-.69,2.42-1.27,2.56s-2.17.2-2.87.05l-15.39-3.33c-14.74-3.19-28.46-8.19-42.42-13.72-19.55-7.73-37.08-17.64-54.63-29.37-41.51-27.74-73.4-66.43-95.16-111.4C7.15,364.37-1.9,317.3.33,273.02c2.37-46.91,17.88-94.25,42.54-134.33,13.13-21.34,31.36-42.36,49.95-59.19,35.5-32.13,87.25-57.22,135.11-63.92,69.18-12.61,145.07,7.02,200.73,50.57,20.57-18.84,41.9-34.85,64.56-49.94l24.34-16.2c28.49,51.25,48.37,117.15,55.74,175.17,2.85,22.44,3.49,57.87,2.08,80.21-5.74,90.81-42.61,174.08-110.81,234.94-35.87,32.01-78.73,53.94-125.3,65.7-17.2,4.34-33.47,6.41-50.91,7.11-4.31.17-8.86.54-12.44,1.52ZM335.48,171.54l24.53-32.75c-33.48-22.52-73.89-30.73-114.15-25.36-23.34,3.11-44.44,11.8-64.62,23.63-13.29,7.8-21.22,15.33-32.16,25.8-6.79,6.5-12.2,13.62-17.54,21.54-24.07,35.71-36.39,77.79-31.32,121.22,4.21,36.09,19.27,69.59,42.42,97.17,14.14,16.84,30.62,29.36,49.45,40.9l-4.94,29.53c-14.05-7.52-26.35-14.24-38.18-23.58-47.98-37.92-76.97-94.73-79.23-155.88-.7-18.83,1.35-35.64,5.55-53.8,8.72-37.69,27.59-71.78,54.59-99.26,65.91-67.07,170.88-77.34,249.03-24.83l27.57-29.58c-9.89-8.13-20.18-14.28-31.46-19.84-20.87-10.29-41.82-17.57-64.67-21.44-31.12-5.27-61-4.82-92.01,2.17-62.3,14.04-117.14,52.53-150.7,107.12-17.6,28.63-29.9,59.91-34.82,93.22-7.14,48.31-1.65,94.03,17.94,138.59,30.2,68.68,86.95,117.36,159.55,139.62l3.55-30.21c3.01-25.6,7.77-50.06,13.61-75.24,17.57-75.77,49.73-157.92,92.14-223.55-2.38-2.86-5.3-3.41-8.29-4.71-10.55-4.61-20.86-8.18-32.46-9.24-39.97-3.65-76.71,16.91-96.06,51.76-9.27,16.7-14.4,34.66-13.55,54.05,2.37,54.44,31.91,63.73,33.82,89.01.64,8.55.61,16.08-1.77,24.63-33.97-24.84-56.81-59.52-60.96-100.82-3.56-35.45,7.09-71.85,28.79-99.53,39.82-50.79,111.35-62.97,166.36-30.34ZM506.79,287.62c13.03-12.63,20.14-19.63,38.13-20.98,8.03-76.32-6.91-154.74-38.74-224.23l-32.7,23.7c-8.17,5.92-15.47,12.31-23.41,19.39,40.25,37.56,59.6,97.64,60.34,150.7.24,17.42-1.74,33.75-3.62,51.42ZM453.28,371.92c16.27-21.02,6.49-17.48,13.92-40.01,11.61-35.21,16.2-71.89,13.3-109.02-3.29-41.98-19.77-88.25-51.73-117-3.66,3.06-6.38,5.78-9.49,9.11l-17.2,18.37c55.33,52.33,69.21,130.45,50.45,201.8-3.74,14.22-9.58,26.36-16.01,39.27-5.31,10.68-10.74,20.05-18.66,29.29,12.4-6.69,26.97-20.87,35.43-31.8ZM404.61,326.99l7.46-8.47,11.38,7.4c11.41-42.14,9.64-83.85-7.94-123.86-7.63-17.36-18.2-32.61-32.32-45.62-9.02,10.91-16.59,21.58-24.27,32.91,14.8,15.39,25.6,32.43,31.96,52.48,10.68,28.94,10.48,59.85-.23,88.64l-4.51,12.14c7.36-3.87,12.98-9.37,18.48-15.62ZM310.32,373.94c6-2.49,12.89-3.81,18.47-7.4,6.81-4.39,13.25-10.29,18.24-16.69,31.15-39.89,28.51-97.04-4.65-135.08-11.29,16.86-19.75,32.82-28.33,49.83-13.84,27.36-25.39,54.78-35.49,83.79-6.18,19.31-13.14,37.54-16.42,57.79,15.54-14.26,29.94-24.97,48.18-32.24Z"/>
  </g>
  <g id="Text">
    <g id="Tanaste">
      <path class="cls-1" d="M1764.92,195.73l.36,57.53c.06,10.05,7.6,17.35,16.73,19.21,24.19,4.92,49.62,1.22,73.4-3.26.46,3.96,1.46,9.68-.61,13.37-2.02,3.61-7.77,6.44-11.9,6.89-26.74,2.92-52.8,3.49-79.06-.42-16.89-4.01-28.43-17.5-28.44-35.22l-.03-159.1,115.26-.06c1.62,4.98.31,9.99-2.79,13.38-3.02,3.3-8.02,4.82-12.67,4.15l-70.13-.12-.13,66.93,63.95.1,7.03-.99-.34,12.14c-2.94,2.54-6.58,5.34-10.69,5.35l-59.94.13Z"/>
      <path class="cls-1" d="M1648.01,290.23l-29.8-.09.02-178.12-63.39-.08c-.42-4.36.13-8.61,2.21-11.64,2.13-3.11,6.7-5.56,11.23-5.56l142.42-.08c1.5,4.14.84,8.45-1.47,12.01-1.58,2.43-6.05,5.48-9.97,5.48h-51.3s.05,178.09.05,178.09Z"/>
      <path class="cls-1" d="M1478.92,90.64h1c15.1,1.72,30.37,2.48,43.42,11.27,8.06,5.43,10.25,15.46,4.91,22.78-5.19,7.11-7.45-6.35-26.66-12.8-14.03-4.71-28.49-5.32-42.27.29-10.82,4.41-17.79,14.08-17.93,25.26-.14,10.79,5.6,20.98,15.55,26.35,21.8,11.78,38.8,15.84,58.31,27.45,21.54,12.82,30.53,36.57,24.21,61.06-4.43,17.15-17.46,30.5-34.62,36.41-16.55,5.69-33.57,5.8-51.07,3.24-16.32-2.38-32.42-8.94-42.59-22.32-3.47-4.57-.44-13.19,2.53-16.76,2.15-2.59,5.22-2.06,7.01-.05,16.94,19.08,42.71,26.71,67.39,21.12,14.36-3.25,23.83-14.48,24.06-29.33.1-6.33-.97-12.5-4.5-17.83-4.74-7.15-11.26-12.4-19.03-15.88l-32.32-14.46c-8.1-3.62-15.74-6.92-22.88-12.09-24.06-17.39-27.52-50.75-7.65-72.96,10.07-11.25,23.71-17.13,38.96-19.17,4.88-.65,9.89-.33,14.18-1.56Z"/>
      <path class="cls-1" d="M1357.36,275.42l-18.49-45.55h-81.04s-20.46,52.06-20.46,52.06c-1.49,3.78-2.89,6.62-6.63,8.57-5.95.06-10.91.03-17.65-.84l45.57-114.26,14.25-35.9,14.68-36.09,4.17-10.25c15.16-.99,25.66,3.46,31.37,18.44l6.39,16.74,51.42,125.15,12.78,31.49c3.68,9.07-14.83,5.21-20.05,5.25-8.15-2.15-13.04-6.83-16.32-14.8ZM1333.11,213.66l-35.12-87.73-34.35,87.92,69.46-.19Z"/>
      <path class="cls-1" d="M1187.68,101.39l-.06,181.06v7.66c-10.92,2.41-20.78-2.17-27.86-10.42-8.44-9.83-15.73-20-23.4-30.64l-38.14-51.67-48.27-64.14-.15,144.25c0,4.81-.26,8.38-.58,12.97l-19.3-.3V93.98c19.57-1.37,30.6,3.51,41.92,18.77l36.25,48.86,45.61,61.25,14.35,20.16.25-141.88c0-1.98,1.24-5.7,2.58-6.82,4.11-.94,10.11-1.05,14.53.06,2.09.52,2.28,3.99,2.28,7.01Z"/>
      <path class="cls-1" d="M967.81,277.18l-19.34-47.35-80.54.07-19.34,49.4c-1.56,3.99-2.62,7.57-5.4,10.82-7.3.63-13.6.98-20.42-.69l51.15-128.39,18.58-46.52,8.28-21.38c10.17-.56,24.05,2.04,28.36,12.29l19.32,45.91,17.69,43.26,38.72,95.28c-15.37,1.89-30.75,2.8-37.08-12.69ZM942.6,213.69l-29.73-72.83c-1.67-4.73-3.37-9.03-5.56-13.31l-33.89,86.19,69.17-.06Z"/>
      <path class="cls-1" d="M771.47,290.15l-29.34.07.02-178-61.84-.21c-1.5-3.68-.58-8.48,2.12-12.2,1.94-2.67,6.99-5.11,11.62-5.11h138.81c1.69,3.36,1.5,8.27-.72,11.49-1.69,2.45-6.06,5.9-9.99,5.9h-50.71s.02,178.06.02,178.06Z"/>
    </g>
    <g id="Subtitle">
      <path class="cls-1" d="M1856.92,434.76v4.75c-1.96,3.6-5.12,6.6-9.31,5.74-3.64-.75-6.47-4.36-6.55-8.05-.09-4.07,2.96-7.58,7.45-8.06,3.5-.38,6.54,2.3,8.41,5.62Z"/>
      <path class="cls-1" d="M1769.85,459.03c7.26,1.91,13.3,3.79,19.41-.48,4.02-2.81,8.25-10.15,7.47-15.41l-30.5-68.41c4.33-.24,7.8-.23,11.65.1l25.41,58.11,25.58-58.85c3.88.2,6.77.48,10.24,1.14l-24.66,54.72-11.43,26.63c-7.13,16.62-29.71,17.44-38.11,8.75-1.58-1.63,2.58-6.93,4.94-6.3Z"/>
      <path class="cls-1" d="M1735.53,444.39c-3.41.29-6.6.26-10.43-.09l-.08-69.58,9.72-.11.97,11.37c6-9.07,14.74-12.63,24.89-12.24.3,3.75.26,6.87-.37,10.22-13.91-1.2-24.22,8.34-24.34,21.75l-.34,38.68Z"/>
      <path class="cls-1" d="M1707.97,409.65c0,19.9-16.13,36.04-36.04,36.04s-36.04-16.13-36.04-36.04,16.13-36.04,36.04-36.04,36.04,16.13,36.04,36.04ZM1666.37,435.71c16.53,2.82,29.51-8.01,30.73-24.12,1.13-15.04-9.77-28.5-24.87-28.6-15.65-.1-25.62,11.66-25.5,26.63.1,12.51,6.41,23.82,19.64,26.08Z"/>
      <path class="cls-1" d="M1623.91,435.1c2.23-.37,4.21,5.5,2.5,6.81-4.13,3.18-9.36,3.73-14.49,3.58-10.42-.31-18.99-8.17-19.02-18.81l-.14-42.94-12.11-.37-.09-8.55,12.14-.38.3-15.56,9.7.04.4,15.6,19.62.32c1.7,1.94,1.81,6.83.14,8.63l-19.92.02.04,42.2c0,5.85,5.29,10.86,11,10.74,2.92-.06,6.64-.78,9.92-1.32Z"/>
      <path class="cls-1" d="M1573.47,429.68c-5.52,20.11-40.92,19.18-56.3,7.67.4-2.98,1.72-5.95,3.6-8.21,9.94,7.11,37.15,11.16,41.68.21,1.13-2.73,1.01-7.91-1.44-9.69-9.93-7.21-19.73-3.16-33.68-11.21-8.69-5.01-11.16-15.37-5.41-23.85,10.03-14.79,34.48-13.33,49.39-4.86-1.16,3.14-2.84,5.8-4.88,7.86-10.3-5.06-21.59-7.08-31.73-2.41-3.88,1.78-6.23,5.92-5.67,9.88,1.3,9.19,18.63,8.45,33.18,13.39,9.12,3.1,13.85,11.81,11.26,21.24Z"/>
      <path class="cls-1" d="M1458.04,428.87c2.38.16,5.84,3.16,5.86,5.42-6.18,8.96-17.37,11.73-28.01,11.13-17.29-.98-32.1-12.54-34.62-29.97-1.48-10.29,1.05-21.1,7.42-28.94,8.39-10.33,20.54-15.26,33.92-12.43,17.44,3.68,27.72,21.02,26.56,38.66l-57.53-.05c1.19,14.63,13.18,23.89,27.29,23.42,7.08-.24,13.44-1.96,19.1-7.24ZM1458.37,404.54c.17-11.77-7.7-19.43-18.08-21.36-13.07-2.43-26.81,4.93-28.52,21.24l46.6.12Z"/>
      <path class="cls-1" d="M1373.58,444.39l-.61-42.64c-.17-12.13-9.74-19.17-21.05-18.48-12.86.78-22.54,9.47-22.59,22.67l-.12,38.25c-3.18.57-6.28.51-10.29-.16v-97.32c3.01-1.76,6.38-1.67,10.28-.85l.24,39.58c11.48-12.88,30.06-16.07,43.78-6.14,8.21,5.94,11.11,16.51,11.07,26.26l-.14,38.42c-3.26.66-6.44.74-10.59.42Z"/>
      <path class="cls-1" d="M1299.94,434.99c1.93-.13,3.75,5.01,3.22,7.01-6.1,3.71-13.65,4.62-20.74,2.93-7.94-1.9-14.16-8.73-14.26-17.46l-.47-43.93-10.85-.94c-1.93-.17-1.65-7.36.31-7.47l10.63-.62.21-15.44h10.13s.2,15.38.2,15.38l20.69.44.54,8.38h-20.97s-.17,42.09-.17,42.09c-.02,3.97,2.87,8.5,6.75,9.87,4.41,1.55,9.42.4,14.75-.23Z"/>
      <path class="cls-1" d="M1200.35,429.19c1.58-1.23,6.55,3.35,5.66,5.12-5.33,10.46-21.4,12.16-32.16,10.58-18.95-2.8-31.4-18.39-30.46-37.51,1.04-21.26,19.94-37.68,41.38-33.31,17.87,3.64,28.41,20.38,26.94,38.6l-57.4.1c.76,14.22,12.2,22.94,25.62,23.3,7.6.2,14.15-1.59,20.43-6.87ZM1201.31,404.33c-1-14.86-12.15-21.94-24.45-21.71-12.14.83-22.22,9.56-22.4,21.92l46.85-.2Z"/>
      <path class="cls-1" d="M1081.66,418.55c3.31,11.48,13.12,17.25,24.26,17.44,8.1.14,14.8-2.95,19.86-9.53,2.75.53,6.4,2.66,7.43,4.96-5.84,10.25-17.01,14.26-28.28,14.08-20.08-.31-35.42-15.89-35.27-35.83.09-11.26,4.08-21.46,13.07-28.28,11.9-9.03,27.86-10.75,40.98-3.6,4.27,2.33,7.47,5.54,8.89,10.09l-7.4,4.59c-5.41-6.88-12.06-9.33-20.31-9.49-10.5-.2-19.64,5.44-23.01,15.74-1.97,6-2.1,13.31-.22,19.83Z"/>
      <path class="cls-1" d="M1004.27,442.67c-8.49-3.71-12.66-12.07-11.69-20.44,2.47-21.48,32.67-18.4,48.2-17.56.27-4.77-.03-9.94-1.98-14.04-6.03-12.64-29.14-7.85-39.67-.79l-4.27-7.54c10.98-7.59,23.46-10.43,36.48-8.04s20.4,12.67,20.34,25.54l-.21,43.99c-3.27.71-6.12.83-9.56.7l-.53-8.69c-9.13,10.85-25.08,12.11-37.11,6.86ZM1034.18,433.22c5.01-2.76,6.92-8.36,6.86-13.48l-.09-8.15-16.08.36c-6.24.14-12.54.4-17.8,3.89-4.07,2.71-5.22,7.2-4.07,12.14,2.45,10.52,21.06,10.8,31.18,5.23Z"/>
      <path class="cls-1" d="M965.55,383.14l.11,60.75c-3.26.98-6.42.88-10.6.15l-.1-60.88-12.22.13v-8.38s12.4-.47,12.4-.47l.03-7.91c.03-7.55,2.89-15.01,9.77-18.78,7.96-4.36,17.94-3.96,25.49,1.18-.05,2.32-2.13,6.09-4.15,6.74-5.26-1.78-12.14-4.16-16.33-.08-4.97,4.84-4.4,12.17-4.03,18.8l19.58.23c.37,2.34.29,5.4-.07,8.64l-19.87-.15Z"/>
      <path class="cls-1" d="M910.98,444.49l-10.04-.04-.43-69.25c2.96-.67,6.66-.7,10.01-.24l-.11,11.77c5.78-8.75,14.08-13.42,24.65-13,.13,3.33.05,6.4-.28,10-13.33-.58-23.26,8.3-23.4,21.34l-.41,39.41Z"/>
      <path class="cls-1" d="M813.42,420.85l-.79-46.43,10.45.44.44,40.91c.07,6.12,1.77,13.56,7.33,16.82,7.8,4.58,18.84,4.68,26.36-.57,5.17-3.61,8.35-11.05,8.4-17.45l.33-40.04c3.34-.67,6.59-.66,10.37.13l.17,69.54-10.17.51-.46-10.26c-6.56,7.66-13.86,10.99-24,11.28-14.41.41-28.15-9.01-28.42-24.88Z"/>
      <path class="cls-1" d="M739.14,437.34l3.85-8.26c10.53,7.46,43.04,13.04,43.35-3.93.08-4.1-3.04-7.41-7.51-8.51l-23.66-5.86c-7.54-1.87-12.86-7.67-13.5-14.89-.76-8.53,2.69-14.72,10.36-18.57,13.16-6.6,28.69-4.83,42.05,2.41-.62,3.24-1.96,6.03-4.13,8.46-11.15-6.85-38.99-9.27-38.3,5.91.19,4.09,3.54,6.82,7.87,7.8l22.64,5.14c7.31,1.66,13.07,7.2,14.38,13.44,1.63,7.79-1.46,15.17-8.11,19.63-13.44,9.02-35.87,6.04-49.3-2.78Z"/>
    </g>
  </g>
</svg>