<?xml version="1.0" encoding="UTF-8"?>
<svg xmlns="http://www.w3.org/2000/svg" viewBox="0 0 1858 566">
  <defs>
    <style>
      .cls-1 {
        fill: #fff;
      }
    </style>
  </defs>
  <g id="Layer_1_Image" data-name="Layer 1 Image">
    <g>
      <path class="cls-1" d="M276.95,566H0V0h578v566h-301c3.59-.98,8.14-1.34,12.44-1.52,17.45-.71,33.71-2.77,50.91-7.11,46.56-11.76,89.42-33.69,125.3-65.7,68.2-60.86,105.07-144.13,110.81-234.94,1.41-22.33.77-57.76-2.08-80.21-7.37-58.01-27.25-123.92-55.74-175.17l-24.34,16.2c-22.66,15.08-43.99,31.1-64.56,49.94C374.09,23.95,298.2,4.32,229.02,16.93c-47.86,6.7-99.61,31.79-135.11,63.92-18.59,16.82-36.82,37.85-49.95,59.19C19.3,180.12,3.78,227.47,1.41,274.38c-2.24,44.28,6.82,91.36,26.16,131.35,21.76,44.98,53.65,83.66,95.16,111.4,17.55,11.73,35.08,21.64,54.63,29.37,13.96,5.52,27.68,10.52,42.42,13.72l15.39,3.33c.69.15,2.29.1,2.87-.05s1.25-1.95,1.27-2.56c.71-16.61.95-32.47,3.84-48.84,7.8-44.16,26.02-79.93,65.39-103.52,33.14-19.85,77.31-20.57,102.32-49.81,1.08-1.27,3.17-2.71,4.44-3.49-.79,25.84-30.26,49.96-50.02,63.02-6.35,4.19-11.79,8.51-17.76,13.25-5.33,4.23-10.39,10.76-7.16,17.75,41.16,8.23,80.32-6.08,111.5-32.59,27.52-23.4,42.38-50.27,59.51-81.45,6.66-12.11,17.66-34.48,31.04-39.96-9.67,59.92-36.9,114.08-78.01,156.98-17.08,17.83-35.29,33.41-56.43,45.83-32.58,19.15-55.91,26.79-92.55,35.45-14.31,3.38-25.84,12.99-35.01,23.75-2.32,2.72-3.66,5.66-3.47,8.69Z"/>
      <g>
        <path d="M277,566h-.05c-.19-3.03,1.15-5.97,3.47-8.69,9.18-10.76,20.7-20.36,35.01-23.75,36.64-8.66,59.97-16.3,92.55-35.45,21.13-12.42,39.34-28,56.43-45.83,41.1-42.9,68.34-97.06,78.01-156.98-13.38,5.48-24.38,27.85-31.04,39.96-17.14,31.18-31.99,58.05-59.51,81.45-31.18,26.51-70.34,40.82-111.5,32.59-3.23-6.99,1.83-13.52,7.16-17.75,5.97-4.74,11.41-9.05,17.76-13.25,19.76-13.06,49.23-37.18,50.02-63.02-1.26.78-3.35,2.22-4.44,3.49-25.01,29.24-69.18,29.96-102.32,49.81-39.38,23.58-57.6,59.35-65.39,103.52-2.89,16.37-3.13,32.23-3.84,48.84-.03.61-.69,2.42-1.27,2.56s-2.17.2-2.87.05l-15.39-3.33c-14.74-3.19-28.46-8.19-42.42-13.72-19.55-7.73-37.08-17.64-54.63-29.37-41.51-27.74-73.4-66.43-95.16-111.4C8.23,365.73-.82,318.66,1.41,274.38c2.37-46.91,17.88-94.25,42.54-134.33,13.13-21.34,31.36-42.36,49.95-59.19,35.5-32.13,87.25-57.22,135.11-63.92,69.18-12.61,145.07,7.02,200.73,50.57,20.57-18.84,41.9-34.85,64.56-49.94l24.34-16.2c28.49,51.25,48.37,117.15,55.74,175.17,2.85,22.44,3.49,57.87,2.08,80.21-5.74,90.81-42.61,174.08-110.81,234.94-35.87,32.01-78.73,53.94-125.3,65.7-17.2,4.34-33.47,6.41-50.91,7.11-4.31.17-8.86.54-12.44,1.52ZM336.56,172.9l24.53-32.75c-33.48-22.52-73.89-30.73-114.15-25.36-23.34,3.11-44.44,11.8-64.62,23.63-13.29,7.8-21.22,15.33-32.16,25.8-6.79,6.5-12.2,13.62-17.54,21.54-24.07,35.71-36.39,77.79-31.32,121.22,4.21,36.09,19.27,69.59,42.42,97.17,14.14,16.84,30.62,29.36,49.45,40.9l-4.94,29.53c-14.05-7.52-26.35-14.24-38.18-23.58-47.98-37.92-76.97-94.73-79.23-155.88-.7-18.83,1.35-35.64,5.55-53.8,8.72-37.69,27.59-71.78,54.59-99.26,65.91-67.07,170.88-77.34,249.03-24.83l27.57-29.58c-9.89-8.13-20.18-14.28-31.46-19.84-20.87-10.29-41.82-17.57-64.67-21.44-31.12-5.27-61-4.82-92.01,2.17-62.3,14.04-117.14,52.53-150.7,107.12-17.6,28.63-29.9,59.91-34.82,93.22-7.14,48.31-1.65,94.03,17.94,138.59,30.2,68.68,86.95,117.36,159.55,139.62l3.55-30.21c3.01-25.6,7.77-50.06,13.61-75.24,17.57-75.77,49.73-157.92,92.14-223.55-2.38-2.86-5.3-3.41-8.29-4.71-10.55-4.61-20.86-8.18-32.46-9.24-39.97-3.65-76.71,16.91-96.06,51.76-9.27,16.7-14.4,34.66-13.55,54.05,2.37,54.44,31.91,63.73,33.82,89.01.64,8.55.61,16.08-1.77,24.63-33.97-24.84-56.81-59.52-60.96-100.82-3.56-35.45,7.09-71.85,28.79-99.53,39.82-50.79,111.35-62.97,166.36-30.34ZM507.87,288.98c13.03-12.63,20.14-19.63,38.13-20.98,8.03-76.32-6.91-154.74-38.74-224.23l-32.7,23.7c-8.17,5.92-15.47,12.31-23.41,19.39,40.25,37.56,59.6,97.64,60.34,150.7.24,17.42-1.74,33.75-3.62,51.42ZM454.36,373.28c16.27-21.02,6.49-17.48,13.92-40.01,11.61-35.21,16.2-71.89,13.3-109.02-3.29-41.98-19.77-88.25-51.73-117-3.66,3.06-6.38,5.78-9.49,9.11l-17.2,18.37c55.33,52.33,69.21,130.45,50.45,201.8-3.74,14.22-9.58,26.36-16.01,39.27-5.31,10.68-10.74,20.05-18.66,29.29,12.4-6.69,26.97-20.87,35.43-31.8ZM405.69,328.35l7.46-8.47,11.38,7.4c11.41-42.14,9.64-83.85-7.94-123.86-7.63-17.36-18.2-32.61-32.32-45.62-9.02,10.91-16.59,21.58-24.27,32.91,14.8,15.39,25.6,32.43,31.96,52.48,10.68,28.94,10.48,59.85-.23,88.64l-4.51,12.14c7.36-3.87,12.98-9.37,18.48-15.62ZM311.4,375.3c6-2.49,12.89-3.81,18.47-7.4,6.81-4.39,13.25-10.29,18.24-16.69,31.15-39.89,28.51-97.04-4.65-135.08-11.29,16.86-19.75,32.82-28.33,49.83-13.84,27.36-25.39,54.78-35.49,83.79-6.18,19.31-13.14,37.54-16.42,57.79,15.54-14.26,29.94-24.97,48.18-32.24Z"/>
        <path class="cls-1" d="M336.56,172.9c-55.01-32.63-126.54-20.45-166.36,30.34-21.7,27.67-32.35,64.07-28.79,99.53,4.15,41.3,26.98,75.98,60.96,100.82,2.38-8.55,2.42-16.07,1.77-24.63-1.9-25.29-31.44-34.58-33.82-89.01-.84-19.38,4.28-37.34,13.55-54.05,19.35-34.86,56.09-55.41,96.06-51.76,11.61,1.06,21.92,4.63,32.46,9.24,2.99,1.31,5.91,1.85,8.29,4.71-42.41,65.63-74.57,147.78-92.14,223.55-5.84,25.18-10.61,49.64-13.61,75.24l-3.55,30.21c-72.6-22.26-129.35-70.94-159.55-139.62-19.59-44.56-25.08-90.28-17.94-138.59,4.93-33.31,17.22-64.59,34.82-93.22,33.56-54.59,88.41-93.08,150.7-107.12,31.01-6.99,60.89-7.44,92.01-2.17,22.85,3.87,43.8,11.15,64.67,21.44,11.28,5.56,21.57,11.71,31.46,19.84l-27.57,29.58c-78.16-52.52-183.12-42.25-249.03,24.83-27.01,27.48-45.88,61.57-54.59,99.26-4.2,18.16-6.24,34.97-5.55,53.8,2.26,61.15,31.25,117.96,79.23,155.88,11.83,9.35,24.13,16.06,38.18,23.58l4.94-29.53c-18.82-11.54-35.31-24.06-49.45-40.9-23.15-27.58-38.21-61.09-42.42-97.17-5.07-43.43,7.26-85.51,31.32-121.22,5.34-7.92,10.75-15.04,17.54-21.54,10.93-10.47,18.87-18.01,32.16-25.8,20.17-11.83,41.28-20.52,64.62-23.63,40.25-5.36,80.67,2.84,114.15,25.36l-24.53,32.75Z"/>
        <path class="cls-1" d="M507.87,288.98c1.88-17.67,3.87-34,3.62-51.42-.75-53.06-20.1-113.14-60.34-150.7,7.94-7.08,15.25-13.47,23.41-19.39l32.7-23.7c31.83,69.49,46.77,147.91,38.74,224.23-17.99,1.35-25.1,8.35-38.13,20.98Z"/>
        <path class="cls-1" d="M311.4,375.3c-18.24,7.27-32.63,17.98-48.18,32.24,3.28-20.26,10.24-38.49,16.42-57.79,10.1-29,21.65-56.43,35.49-83.79,8.58-17.01,17.04-32.96,28.33-49.83,33.16,38.04,35.79,95.19,4.65,135.08-5,6.4-11.43,12.3-18.24,16.69-5.57,3.59-12.47,4.91-18.47,7.4Z"/>
        <path class="cls-1" d="M454.36,373.28c-8.46,10.93-23.03,25.11-35.43,31.8,7.92-9.24,13.35-18.62,18.66-29.29,6.42-12.91,12.27-25.05,16.01-39.27,18.76-71.34,4.89-149.47-50.45-201.8l17.2-18.37c3.12-3.33,5.83-6.05,9.49-9.11,31.97,28.75,48.45,75.02,51.73,117,2.91,37.14-1.69,73.81-13.3,109.02-7.43,22.53,2.36,18.99-13.92,40.01Z"/>
        <path class="cls-1" d="M405.69,328.35c-5.5,6.25-11.12,11.75-18.48,15.62l4.51-12.14c10.7-28.79,10.91-59.7.23-88.64-6.37-20.06-17.16-37.09-31.96-52.48,7.68-11.33,15.25-22,24.27-32.91,14.13,13.02,24.7,28.26,32.32,45.62,17.58,40.01,19.35,81.72,7.94,123.86l-11.38-7.4-7.46,8.47Z"/>
      </g>
    </g>
  </g>
  <g id="Layer_2_Image" data-name="Layer 2 Image">
    <g>
      <g>
        <path d="M1188.76,102.75l-.06,181.06v7.66c-10.92,2.41-20.78-2.17-27.86-10.42-8.44-9.83-15.73-20-23.4-30.64l-38.14-51.67-48.27-64.14-.15,144.25c0,4.81-.26,8.38-.58,12.97l-19.3-.3V95.34c19.57-1.37,30.6,3.51,41.92,18.77l36.25,48.86,45.61,61.25,14.35,20.16.25-141.88c0-1.98,1.24-5.7,2.58-6.82,4.11-.94,10.11-1.05,14.53.06,2.09.52,2.28,3.99,2.28,7.01Z"/>
        <path d="M1358.44,276.78l-18.49-45.55h-81.04s-20.46,52.06-20.46,52.06c-1.49,3.78-2.89,6.62-6.63,8.57-5.95.06-10.91.03-17.65-.84l45.57-114.26,14.25-35.9,14.68-36.09,4.17-10.25c15.16-.99,25.66,3.46,31.37,18.44l6.39,16.74,51.42,125.15,12.78,31.49c3.68,9.07-14.83,5.21-20.05,5.25-8.15-2.15-13.04-6.83-16.32-14.8ZM1334.19,215.02l-35.12-87.73-34.35,87.92,69.46-.19Z"/>
        <g>
          <path d="M1480,92h1c15.1,1.72,30.37,2.48,43.42,11.27,8.06,5.43,10.25,15.46,4.91,22.78-5.19,7.11-7.45-6.35-26.66-12.8-14.03-4.71-28.49-5.32-42.27.29-10.82,4.41-17.79,14.08-17.93,25.26s5.6,20.98,15.55,26.35c21.8,11.78,38.8,15.84,58.31,27.45,21.54,12.82,30.53,36.57,24.21,61.06-4.43,17.15-17.46,30.5-34.62,36.41-16.55,5.69-33.57,5.8-51.07,3.24-16.32-2.38-32.42-8.94-42.59-22.32-3.47-4.57-.44-13.19,2.53-16.76,2.15-2.59,5.22-2.06,7.01-.05,16.94,19.08,42.71,26.71,67.39,21.12,14.36-3.25,23.83-14.48,24.06-29.33.1-6.33-.97-12.5-4.5-17.83-4.74-7.15-11.26-12.4-19.03-15.88l-32.32-14.46c-8.1-3.62-15.74-6.92-22.88-12.09-24.06-17.39-27.52-50.75-7.65-72.96,10.07-11.25,23.71-17.13,38.96-19.17,4.88-.65,9.89-.33,14.18-1.56Z"/>
          <g>
            <path d="M1766,197.09l.36,57.53c.06,10.05,7.6,17.35,16.73,19.21,24.19,4.92,49.62,1.22,73.4-3.26.46,3.96,1.46,9.68-.61,13.37s-7.77,6.44-11.9,6.89c-26.74,2.92-52.8,3.49-79.06-.42-16.89-4.01-28.43-17.5-28.44-35.22l-.03-159.1,115.26-.06c1.62,4.98.31,9.99-2.79,13.38s-8.02,4.82-12.67,4.15l-70.13-.12-.13,66.93,63.95.1,7.03-.99-.34,12.14c-2.94,2.54-6.58,5.34-10.69,5.35l-59.94.13Z"/>
            <path d="M1649.09,291.59l-29.8-.09.02-178.12-63.39-.08c-.42-4.36.13-8.61,2.21-11.64s6.7-5.56,11.23-5.56l142.42-.08c1.5,4.14.84,8.45-1.47,12.01-1.58,2.43-6.05,5.48-9.97,5.48h-51.3s.05,178.09.05,178.09Z"/>
          </g>
        </g>
        <g>
          <path d="M968.89,278.54l-19.34-47.35-80.54.07-19.34,49.4c-1.56,3.99-2.62,7.57-5.4,10.82-7.3.63-13.6.98-20.42-.69l51.15-128.39,18.58-46.52,8.28-21.38c10.17-.56,24.05,2.04,28.36,12.29l19.32,45.91,17.69,43.26,38.72,95.28c-15.37,1.89-30.75,2.8-37.08-12.69ZM943.68,215.05l-29.73-72.83c-1.67-4.73-3.37-9.03-5.56-13.31l-33.89,86.19,69.17-.06Z"/>
          <path d="M772.55,291.51l-29.34.07.02-178-61.84-.21c-1.5-3.68-.58-8.48,2.12-12.2,1.94-2.67,6.99-5.11,11.62-5.11h138.81c1.69,3.36,1.5,8.27-.72,11.49-1.69,2.45-6.06,5.9-9.99,5.9h-50.71s.02,178.06.02,178.06Z"/>
        </g>
      </g>
      <path d="M1374.66,445.75l-.61-42.64c-.17-12.13-9.74-19.17-21.05-18.48-12.86.78-22.54,9.47-22.59,22.67l-.12,38.25c-3.18.57-6.28.51-10.29-.16v-97.32c3.01-1.76,6.38-1.67,10.28-.85l.24,39.58c11.48-12.88,30.06-16.07,43.78-6.14,8.21,5.94,11.11,16.51,11.07,26.26l-.14,38.42c-3.26.66-6.44.74-10.59.42Z"/>
      <path d="M1201.43,430.55c1.58-1.23,6.55,3.35,5.66,5.12-5.33,10.46-21.4,12.16-32.16,10.58-18.95-2.8-31.4-18.39-30.46-37.51,1.04-21.26,19.94-37.68,41.38-33.31,17.87,3.64,28.41,20.38,26.94,38.6l-57.4.1c.76,14.22,12.2,22.94,25.62,23.3,7.6.2,14.15-1.59,20.43-6.87ZM1202.39,405.69c-1-14.86-12.15-21.94-24.45-21.71-12.14.83-22.22,9.56-22.4,21.92l46.85-.2Z"/>
      <path d="M1459.12,430.23c2.38.16,5.84,3.16,5.86,5.42-6.18,8.96-17.37,11.73-28.01,11.13-17.29-.98-32.1-12.54-34.62-29.97-1.48-10.29,1.05-21.1,7.42-28.94,8.39-10.33,20.54-15.26,33.92-12.43,17.44,3.68,27.72,21.02,26.56,38.66l-57.53-.05c1.19,14.63,13.18,23.89,27.29,23.42,7.08-.24,13.44-1.96,19.1-7.24ZM1459.45,405.9c.17-11.77-7.7-19.43-18.08-21.36-13.07-2.43-26.81,4.93-28.52,21.24l46.6.12Z"/>
      <path d="M1005.35,444.03c-8.49-3.71-12.66-12.07-11.69-20.44,2.47-21.48,32.67-18.4,48.2-17.56.27-4.77-.03-9.94-1.98-14.04-6.03-12.64-29.14-7.85-39.67-.79l-4.27-7.54c10.98-7.59,23.46-10.43,36.48-8.04,12.52,2.29,20.4,12.67,20.34,25.54l-.21,43.99c-3.27.71-6.12.83-9.56.7l-.53-8.69c-9.13,10.85-25.08,12.11-37.11,6.86ZM1035.26,434.58c5.01-2.76,6.92-8.36,6.86-13.48l-.09-8.15-16.08.36c-6.24.14-12.54.4-17.8,3.89-4.07,2.71-5.22,7.2-4.07,12.14,2.45,10.52,21.06,10.8,31.18,5.23Z"/>
      <path d="M1709.05,411.01c0,19.9-16.13,36.04-36.04,36.04s-36.04-16.13-36.04-36.04,16.13-36.04,36.04-36.04,36.04,16.13,36.04,36.04ZM1667.45,437.07c16.53,2.82,29.51-8.01,30.73-24.12,1.13-15.04-9.77-28.5-24.87-28.6-15.65-.1-25.62,11.66-25.5,26.63.1,12.51,6.41,23.82,19.64,26.08Z"/>
      <path d="M1770.92,460.39c7.26,1.91,13.3,3.79,19.41-.48,4.02-2.81,8.25-10.15,7.47-15.41l-30.5-68.41c4.33-.24,7.8-.23,11.65.1l25.41,58.11,25.58-58.85c3.88.2,6.77.48,10.24,1.14l-24.66,54.72-11.43,26.63c-7.13,16.62-29.71,17.44-38.11,8.75-1.58-1.63,2.58-6.93,4.94-6.3Z"/>
      <path d="M814.5,422.21l-.79-46.43,10.45.44.44,40.91c.07,6.12,1.77,13.56,7.33,16.82,7.8,4.58,18.84,4.68,26.36-.57,5.17-3.61,8.35-11.05,8.4-17.45l.33-40.04c3.34-.67,6.59-.66,10.37.13l.17,69.54-10.17.51-.46-10.26c-6.56,7.66-13.86,10.99-24,11.28-14.41.41-28.15-9.01-28.42-24.88Z"/>
      <path d="M740.22,438.7l3.85-8.26c10.53,7.46,43.04,13.04,43.35-3.93.08-4.1-3.04-7.41-7.51-8.51l-23.66-5.86c-7.54-1.87-12.86-7.67-13.5-14.89-.76-8.53,2.69-14.72,10.36-18.57,13.16-6.6,28.69-4.83,42.05,2.41-.62,3.24-1.96,6.03-4.13,8.46-11.15-6.85-38.99-9.27-38.3,5.91.19,4.09,3.54,6.82,7.87,7.8l22.64,5.14c7.31,1.66,13.07,7.2,14.38,13.44,1.63,7.79-1.46,15.17-8.11,19.63-13.44,9.02-35.87,6.04-49.3-2.78Z"/>
      <path d="M1574.55,431.04c-5.52,20.11-40.92,19.18-56.3,7.67.4-2.98,1.72-5.95,3.6-8.21,9.94,7.11,37.15,11.16,41.68.21,1.13-2.73,1.01-7.91-1.44-9.69-9.93-7.21-19.73-3.16-33.68-11.21-8.69-5.01-11.16-15.37-5.41-23.85,10.03-14.79,34.48-13.33,49.39-4.86-1.16,3.14-2.84,5.8-4.88,7.86-10.3-5.06-21.59-7.08-31.73-2.41-3.88,1.78-6.23,5.92-5.67,9.88,1.3,9.19,18.63,8.45,33.18,13.39,9.12,3.1,13.85,11.81,11.26,21.24Z"/>
      <path d="M1082.74,419.91c3.31,11.48,13.12,17.25,24.26,17.44,8.1.14,14.8-2.95,19.86-9.53,2.75.53,6.4,2.66,7.43,4.96-5.84,10.25-17.01,14.26-28.28,14.08-20.08-.31-35.42-15.89-35.27-35.83.09-11.26,4.08-21.46,13.07-28.28,11.9-9.03,27.86-10.75,40.98-3.6,4.27,2.33,7.47,5.54,8.89,10.09l-7.4,4.59c-5.41-6.88-12.06-9.33-20.31-9.49-10.5-.2-19.64,5.44-23.01,15.74-1.97,6-2.1,13.31-.22,19.83Z"/>
      <path d="M966.63,384.5l.11,60.75c-3.26.98-6.42.88-10.6.15l-.1-60.88-12.22.13v-8.38s12.4-.47,12.4-.47l.03-7.91c.03-7.55,2.89-15.01,9.77-18.78,7.96-4.36,17.94-3.96,25.49,1.18-.05,2.32-2.13,6.09-4.15,6.74-5.26-1.78-12.14-4.16-16.33-.08-4.97,4.84-4.4,12.17-4.03,18.8l19.58.23c.37,2.34.29,5.4-.07,8.64l-19.87-.15Z"/>
      <path d="M1301.02,436.35c1.93-.13,3.75,5.01,3.22,7.01-6.1,3.71-13.65,4.62-20.74,2.93-7.94-1.9-14.16-8.73-14.26-17.46l-.47-43.93-10.85-.94c-1.93-.17-1.65-7.36.31-7.47l10.63-.62.21-15.44h10.13s.2,15.38.2,15.38l20.69.44.54,8.38h-20.97s-.17,42.09-.17,42.09c-.02,3.97,2.87,8.5,6.75,9.87,4.41,1.55,9.42.4,14.75-.23Z"/>
      <path d="M1624.99,436.46c2.23-.37,4.21,5.5,2.5,6.81-4.13,3.18-9.36,3.73-14.49,3.58-10.42-.31-18.99-8.17-19.02-18.81l-.14-42.94-12.11-.37-.09-8.55,12.14-.38.3-15.56,9.7.04.4,15.6,19.62.32c1.7,1.94,1.81,6.83.14,8.63l-19.92.02.04,42.2c0,5.85,5.29,10.86,11,10.74,2.92-.06,6.64-.78,9.92-1.32Z"/>
      <path d="M1736.61,445.75c-3.41.29-6.6.26-10.43-.09l-.08-69.58,9.72-.11.97,11.37c6-9.07,14.74-12.63,24.89-12.24.3,3.75.26,6.87-.37,10.22-13.91-1.2-24.22,8.34-24.34,21.75l-.34,38.68Z"/>
      <path d="M912.06,445.85l-10.04-.04-.43-69.25c2.96-.67,6.66-.7,10.01-.24l-.11,11.77c5.78-8.75,14.08-13.42,24.65-13,.13,3.33.05,6.4-.28,10-13.33-.58-23.26,8.3-23.4,21.34l-.41,39.41Z"/>
      <path class="cls-1" d="M943.68,215.05l-69.17.06,33.89-86.19c2.18,4.28,3.89,8.58,5.56,13.31l29.73,72.83Z"/>
      <path class="cls-1" d="M1480,92c-4.29,1.23-9.3.91-14.18,1.56-15.25,2.04-28.89,7.92-38.96,19.17-19.88,22.21-16.41,55.58,7.65,72.96,7.14,5.16,14.78,8.46,22.88,12.09l32.32,14.46c7.77,3.48,14.29,8.73,19.03,15.88,3.53,5.33,4.6,11.5,4.5,17.83-.22,14.86-9.7,26.08-24.06,29.33-24.69,5.59-50.45-2.04-67.39-21.12-1.79-2.02-4.86-2.54-7.01.05-2.97,3.57-6.01,12.19-2.53,16.76,10.17,13.38,26.27,19.94,42.59,22.32,17.5,2.56,34.53,2.45,51.07-3.24,17.16-5.9,30.19-19.26,34.62-36.41,6.33-24.49-2.67-48.24-24.21-61.06-19.51-11.61-36.51-15.67-58.31-27.45-9.95-5.38-15.69-15.57-15.55-26.35s7.11-20.84,17.93-25.26c13.78-5.62,28.24-5,42.27-.29,19.21,6.45,21.47,19.9,26.66,12.8,5.35-7.32,3.16-17.34-4.91-22.78-13.05-8.79-28.32-9.55-43.42-11.27h377v344.12c-1.87-3.32-4.91-6-8.41-5.62-4.49.48-7.53,3.99-7.45,8.06.08,3.68,2.91,7.3,6.55,8.05,4.2.86,7.35-2.14,9.31-5.74v32.13H679V92h801ZM968.89,278.54c6.33,15.49,21.7,14.59,37.08,12.69l-38.72-95.28-17.69-43.26-19.32-45.91c-4.31-10.25-18.19-12.85-28.36-12.29l-8.28,21.38-18.58,46.52-51.15,128.39c6.82,1.67,13.12,1.31,20.42.69,2.77-3.25,3.83-6.83,5.4-10.82l19.34-49.4,80.54-.07,19.34,47.35ZM1358.44,276.78c3.27,7.97,8.17,12.65,16.32,14.8,5.22-.05,23.73,3.81,20.05-5.25l-12.78-31.49-51.42-125.15-6.39-16.74c-5.72-14.97-16.22-19.43-31.37-18.44l-4.17,10.25-14.68,36.09-14.25,35.9-45.57,114.26c6.74.87,11.7.9,17.65.84,3.75-1.94,5.15-4.78,6.63-8.57l20.46-52.07h81.04s18.49,45.56,18.49,45.56ZM1188.76,102.75c0-3.01-.19-6.48-2.28-7.01-4.42-1.11-10.42-1-14.53-.06-1.34,1.11-2.58,4.83-2.58,6.82l-.25,141.88-14.35-20.16-45.61-61.25-36.25-48.86c-11.32-15.26-22.35-20.14-41.93-18.77v196.18s19.31.3,19.31.3c.32-4.59.58-8.17.58-12.97l.15-144.25,48.27,64.14,38.14,51.67c7.67,10.64,14.96,20.81,23.4,30.64,7.09,8.26,16.95,12.84,27.86,10.42v-7.66s.06-181.06.06-181.06ZM772.55,291.51l-.02-178.06h50.71c3.93,0,8.3-3.45,9.99-5.91,2.22-3.22,2.41-8.12.72-11.49h-138.81c-4.63,0-9.68,2.44-11.62,5.11-2.7,3.72-3.62,8.52-2.12,12.2l61.84.21-.02,178,29.34-.07ZM1649.09,291.59l-.05-178.09h51.3c3.92,0,8.39-3.05,9.97-5.48,2.32-3.56,2.97-7.86,1.47-12.01l-142.42.08c-4.53,0-9.1,2.45-11.23,5.56s-2.64,7.28-2.21,11.64l63.39.08-.02,178.12,29.8.09ZM1766,197.09l59.94-.13c4.11,0,7.75-2.81,10.69-5.35l.34-12.14-7.03.99-63.95-.1.13-66.93,70.13.12c4.64.66,9.65-.85,12.67-4.15s4.41-8.4,2.79-13.38l-115.26.06.03,159.1c0,17.72,11.54,31.21,28.44,35.22,26.26,3.91,52.32,3.34,79.06.42,4.14-.45,9.88-3.28,11.9-6.89s1.07-9.4.61-13.37c-23.78,4.48-49.21,8.18-73.4,3.26-9.13-1.86-16.67-9.16-16.73-19.21l-.36-57.53ZM966.63,384.5l19.87.15c.36-3.24.44-6.3.07-8.64l-19.58-.23c-.38-6.62-.94-13.96,4.03-18.8,4.19-4.08,11.07-1.7,16.33.08,2.02-.66,4.11-4.42,4.15-6.74-7.55-5.14-17.53-5.54-25.49-1.18-6.88,3.77-9.74,11.23-9.77,18.78l-.03,7.91-12.4.47v8.38s12.22-.13,12.22-.13l.1,60.88c4.18.73,7.35.83,10.6-.15l-.11-60.75ZM1374.66,445.75c4.15.32,7.33.25,10.59-.42l.14-38.42c.04-9.75-2.86-20.32-11.07-26.26-13.72-9.92-32.3-6.74-43.78,6.14l-.24-39.58c-3.9-.83-7.27-.91-10.28.85v97.32c4,.67,7.1.73,10.28.16l.12-38.25c.04-13.2,9.73-21.89,22.59-22.67,11.31-.68,20.87,6.35,21.05,18.48l.61,42.64ZM1301.02,436.35c-5.33.63-10.34,1.78-14.75.23-3.89-1.37-6.77-5.9-6.75-9.87l.17-42.09h20.97s-.54-8.37-.54-8.37l-20.69-.44-.2-15.4h-10.13s-.21,15.45-.21,15.45l-10.63.62c-1.97.12-2.24,7.31-.31,7.47l10.85.94.47,43.93c.09,8.73,6.32,15.56,14.26,17.46,7.09,1.69,14.64.78,20.74-2.93.53-2-1.29-7.14-3.22-7.01ZM1624.99,436.46c-3.28.54-7,1.26-9.92,1.32-5.72.12-11-4.89-11-10.74l-.04-42.2,19.92-.02c1.67-1.8,1.56-6.68-.14-8.63l-19.62-.32-.4-15.6-9.7-.04-.3,15.56-12.14.38.09,8.55,12.11.37.14,42.94c.04,10.64,8.6,18.5,19.02,18.81,5.14.15,10.37-.4,14.49-3.58,1.71-1.32-.28-7.18-2.5-6.81ZM740.22,438.7c13.43,8.82,35.86,11.8,49.3,2.78,6.65-4.46,9.74-11.85,8.11-19.63-1.31-6.24-7.07-11.78-14.38-13.44l-22.64-5.14c-4.33-.98-7.69-3.71-7.87-7.8-.69-15.18,27.15-12.77,38.3-5.91,2.17-2.43,3.52-5.22,4.13-8.46-13.36-7.24-28.89-9.01-42.05-2.41-7.68,3.85-11.12,10.04-10.36,18.57.65,7.22,5.96,13.02,13.5,14.89l23.66,5.86c4.47,1.11,7.58,4.41,7.51,8.51-.32,16.97-32.83,11.39-43.35,3.93l-3.85,8.26ZM814.5,422.21c.27,15.87,14,25.29,28.42,24.88,10.14-.29,17.44-3.63,24-11.28l.46,10.26,10.17-.51-.17-69.54c-3.77-.79-7.02-.8-10.37-.13l-.33,40.04c-.05,6.4-3.23,13.84-8.4,17.45-7.52,5.25-18.57,5.15-26.36.57-5.55-3.26-7.26-10.7-7.33-16.82l-.44-40.91-10.45-.44.79,46.43ZM912.06,445.85l.41-39.41c.14-13.04,10.07-21.92,23.4-21.34.32-3.6.41-6.67.28-10-10.57-.42-18.87,4.25-24.65,13l.11-11.77c-3.35-.46-7.05-.43-10.01.24l.43,69.25,10.04.04ZM1005.35,444.03c12.03,5.26,27.98,3.99,37.11-6.86l.53,8.69c3.44.13,6.29.01,9.56-.7l.21-43.99c.06-12.88-7.82-23.25-20.34-25.54-13.02-2.38-25.5.46-36.48,8.04l4.27,7.54c10.54-7.06,33.64-11.85,39.67.79,1.95,4.09,2.25,9.27,1.98,14.04-15.53-.85-45.73-3.93-48.2,17.56-.96,8.37,3.21,16.73,11.69,20.44ZM1082.74,419.91c-1.88-6.51-1.75-13.83.22-19.83,3.38-10.3,12.51-15.93,23.01-15.74,8.24.15,14.89,2.61,20.31,9.49l7.4-4.59c-1.42-4.55-4.62-7.76-8.89-10.09-13.12-7.16-29.08-5.44-40.98,3.6-8.99,6.82-12.98,17.02-13.07,28.28-.15,19.95,15.19,35.52,35.27,35.83,11.27.18,22.45-3.84,28.28-14.08-1.03-2.3-4.68-4.42-7.43-4.96-5.06,6.58-11.76,9.67-19.86,9.53-11.14-.19-20.95-5.96-24.26-17.44ZM1201.43,430.55c-6.27,5.28-12.83,7.07-20.43,6.87-13.42-.36-24.85-9.07-25.62-23.3l57.4-.1c1.47-18.23-9.08-34.96-26.94-38.6-21.44-4.37-40.33,12.05-41.38,33.31-.94,19.12,11.51,34.71,30.46,37.51,10.75,1.59,26.83-.11,32.16-10.58.9-1.76-4.08-6.35-5.66-5.12ZM1459.12,430.23c-5.66,5.28-12.02,7-19.1,7.24-14.12.47-26.1-8.79-27.29-23.42l57.53.05c1.16-17.64-9.12-34.97-26.56-38.66-13.39-2.83-25.53,2.09-33.92,12.43-6.37,7.85-8.91,18.65-7.42,28.94,2.51,17.43,17.33,28.99,34.62,29.97,10.64.6,21.83-2.17,28.01-11.13-.01-2.26-3.48-5.26-5.86-5.42ZM1574.55,431.04c2.59-9.43-2.14-18.14-11.26-21.24-14.54-4.94-31.88-4.2-33.18-13.39-.56-3.95,1.79-8.09,5.67-9.88,10.14-4.67,21.42-2.65,31.73,2.41,2.04-2.06,3.72-4.71,4.88-7.86-14.9-8.47-39.36-9.93-49.39,4.86-5.75,8.48-3.28,18.84,5.41,23.85,13.96,8.05,23.75,4,33.68,11.21,2.46,1.78,2.57,6.97,1.44,9.69-4.53,10.95-31.75,6.9-41.68-.21-1.87,2.26-3.19,5.23-3.6,8.21,15.38,11.51,50.77,12.44,56.3-7.67ZM1709.05,411.01c0-19.9-16.13-36.04-36.04-36.04s-36.04,16.13-36.04,36.04,16.13,36.04,36.04,36.04,36.04-16.13,36.04-36.04ZM1736.61,445.75l.34-38.68c.12-13.41,10.43-22.95,24.34-21.75.63-3.36.67-6.48.37-10.22-10.15-.39-18.88,3.17-24.89,12.24l-.97-11.37-9.72.11.08,69.58c3.83.36,7.02.38,10.43.09ZM1770.92,460.39c-2.37-.62-6.52,4.67-4.94,6.3,8.41,8.68,30.98,7.87,38.11-8.75l11.43-26.63,24.66-54.72c-3.48-.65-6.36-.93-10.24-1.14l-25.58,58.85-25.41-58.11c-3.85-.33-7.32-.34-11.65-.1l30.5,68.41c.78,5.26-3.46,12.61-7.47,15.41-6.12,4.27-12.15,2.4-19.41.48Z"/>
      <polygon class="cls-1" points="1334.19 215.02 1264.73 215.2 1299.07 127.29 1334.19 215.02"/>
      <path class="cls-1" d="M1202.39,405.69l-46.85.2c.18-12.36,10.26-21.09,22.4-21.92,12.3-.23,23.45,6.85,24.45,21.71Z"/>
      <path d="M1858,436.12v4.75c-1.96,3.6-5.12,6.6-9.31,5.74-3.64-.75-6.47-4.36-6.55-8.05-.09-4.07,2.96-7.58,7.45-8.06,3.5-.38,6.54,2.3,8.41,5.62Z"/>
      <path class="cls-1" d="M1459.45,405.9l-46.6-.12c1.71-16.31,15.45-23.67,28.52-21.24,10.38,1.93,18.25,9.59,18.08,21.36Z"/>
      <path class="cls-1" d="M1035.26,434.58c-10.12,5.57-28.73,5.29-31.18-5.23-1.15-4.95,0-9.44,4.07-12.14,5.26-3.5,11.55-3.75,17.8-3.89l16.08-.36.09,8.15c.06,5.12-1.85,10.72-6.86,13.48Z"/>
      <path class="cls-1" d="M1667.45,437.07c-13.24-2.26-19.54-13.58-19.64-26.08-.12-14.98,9.85-26.74,25.5-26.63,15.1.1,26,13.56,24.87,28.6-1.21,16.11-14.19,26.94-30.73,24.12Z"/>
    </g>
  </g>
</svg>
