<?xml version="1.0" encoding="UTF-8"?>
<svg id="Layer_1" data-name="Layer 1" xmlns="http://www.w3.org/2000/svg" viewBox="0 0 578 566">
  <defs>
    <style>
      .cls-1 {
        fill: #fff;
      }
    </style>
  </defs>
  <path class="cls-1" d="M276.95,566H0V0h578v566h-301c3.59-.98,8.14-1.34,12.44-1.52,17.45-.71,33.71-2.77,50.91-7.11,46.56-11.76,89.42-33.69,125.3-65.7,68.2-60.86,105.07-144.13,110.81-234.94,1.41-22.33.77-57.76-2.08-80.21-7.37-58.01-27.25-123.92-55.74-175.17l-24.34,16.2c-22.66,15.08-43.99,31.1-64.56,49.94C374.09,23.95,298.2,4.32,229.02,16.93c-47.86,6.7-99.61,31.79-135.11,63.92-18.59,16.82-36.82,37.85-49.95,59.19C19.3,180.12,3.78,227.47,1.41,274.38c-2.24,44.28,6.82,91.36,26.16,131.35,21.76,44.98,53.65,83.66,95.16,111.4,17.55,11.73,35.08,21.64,54.63,29.37,13.96,5.52,27.68,10.52,42.42,13.72l15.39,3.33c.69.15,2.29.1,2.87-.05s1.25-1.95,1.27-2.56c.71-16.61.95-32.47,3.84-48.84,7.8-44.16,26.02-79.93,65.39-103.52,33.14-19.85,77.31-20.57,102.32-49.81,1.08-1.27,3.17-2.71,4.44-3.49-.79,25.84-30.26,49.96-50.02,63.02-6.35,4.19-11.79,8.51-17.76,13.25-5.33,4.23-10.39,10.76-7.16,17.75,41.16,8.23,80.32-6.08,111.5-32.59,27.52-23.4,42.38-50.27,59.51-81.45,6.66-12.11,17.66-34.48,31.04-39.96-9.67,59.92-36.9,114.08-78.01,156.98-17.08,17.83-35.29,33.41-56.43,45.83-32.58,19.15-55.91,26.79-92.55,35.45-14.31,3.38-25.84,12.99-35.01,23.75-2.32,2.72-3.66,5.66-3.47,8.69Z"/>
  <g>
    <path d="M277,566h-.05c-.19-3.03,1.15-5.97,3.47-8.69,9.18-10.76,20.7-20.36,35.01-23.75,36.64-8.66,59.97-16.3,92.55-35.45,21.13-12.42,39.34-28,56.43-45.83,41.1-42.9,68.34-97.06,78.01-156.98-13.38,5.48-24.38,27.85-31.04,39.96-17.14,31.18-31.99,58.05-59.51,81.45-31.18,26.51-70.34,40.82-111.5,32.59-3.23-6.99,1.83-13.52,7.16-17.75,5.97-4.74,11.41-9.05,17.76-13.25,19.76-13.06,49.23-37.18,50.02-63.02-1.26.78-3.35,2.22-4.44,3.49-25.01,29.24-69.18,29.96-102.32,49.81-39.38,23.58-57.6,59.35-65.39,103.52-2.89,16.37-3.13,32.23-3.84,48.84-.03.61-.69,2.42-1.27,2.56s-2.17.2-2.87.05l-15.39-3.33c-14.74-3.19-28.46-8.19-42.42-13.72-19.55-7.73-37.08-17.64-54.63-29.37-41.51-27.74-73.4-66.43-95.16-111.4C8.23,365.73-.82,318.66,1.41,274.38c2.37-46.91,17.88-94.25,42.54-134.33,13.13-21.34,31.36-42.36,49.95-59.19,35.5-32.13,87.25-57.22,135.11-63.92,69.18-12.61,145.07,7.02,200.73,50.57,20.57-18.84,41.9-34.85,64.56-49.94l24.34-16.2c28.49,51.25,48.37,117.15,55.74,175.17,2.85,22.44,3.49,57.87,2.08,80.21-5.74,90.81-42.61,174.08-110.81,234.94-35.87,32.01-78.73,53.94-125.3,65.7-17.2,4.34-33.47,6.41-50.91,7.11-4.31.17-8.86.54-12.44,1.52ZM336.56,172.9l24.53-32.75c-33.48-22.52-73.89-30.73-114.15-25.36-23.34,3.11-44.44,11.8-64.62,23.63-13.29,7.8-21.22,15.33-32.16,25.8-6.79,6.5-12.2,13.62-17.54,21.54-24.07,35.71-36.39,77.79-31.32,121.22,4.21,36.09,19.27,69.59,42.42,97.17,14.14,16.84,30.62,29.36,49.45,40.9l-4.94,29.53c-14.05-7.52-26.35-14.24-38.18-23.58-47.98-37.92-76.97-94.73-79.23-155.88-.7-18.83,1.35-35.64,5.55-53.8,8.72-37.69,27.59-71.78,54.59-99.26,65.91-67.07,170.88-77.34,249.03-24.83l27.57-29.58c-9.89-8.13-20.18-14.28-31.46-19.84-20.87-10.29-41.82-17.57-64.67-21.44-31.12-5.27-61-4.82-92.01,2.17-62.3,14.04-117.14,52.53-150.7,107.12-17.6,28.63-29.9,59.91-34.82,93.22-7.14,48.31-1.65,94.03,17.94,138.59,30.2,68.68,86.95,117.36,159.55,139.62l3.55-30.21c3.01-25.6,7.77-50.06,13.61-75.24,17.57-75.77,49.73-157.92,92.14-223.55-2.38-2.86-5.3-3.41-8.29-4.71-10.55-4.61-20.86-8.18-32.46-9.24-39.97-3.65-76.71,16.91-96.06,51.76-9.27,16.7-14.4,34.66-13.55,54.05,2.37,54.44,31.91,63.73,33.82,89.01.64,8.55.61,16.08-1.77,24.63-33.97-24.84-56.81-59.52-60.96-100.82-3.56-35.45,7.09-71.85,28.79-99.53,39.82-50.79,111.35-62.97,166.36-30.34ZM507.87,288.98c13.03-12.63,20.14-19.63,38.13-20.98,8.03-76.32-6.91-154.74-38.74-224.23l-32.7,23.7c-8.17,5.92-15.47,12.31-23.41,19.39,40.25,37.56,59.6,97.64,60.34,150.7.24,17.42-1.74,33.75-3.62,51.42ZM454.36,373.28c16.27-21.02,6.49-17.48,13.92-40.01,11.61-35.21,16.2-71.89,13.3-109.02-3.29-41.98-19.77-88.25-51.73-117-3.66,3.06-6.38,5.78-9.49,9.11l-17.2,18.37c55.33,52.33,69.21,130.45,50.45,201.8-3.74,14.22-9.58,26.36-16.01,39.27-5.31,10.68-10.74,20.05-18.66,29.29,12.4-6.69,26.97-20.87,35.43-31.8ZM405.69,328.35l7.46-8.47,11.38,7.4c11.41-42.14,9.64-83.85-7.94-123.86-7.63-17.36-18.2-32.61-32.32-45.62-9.02,10.91-16.59,21.58-24.27,32.91,14.8,15.39,25.6,32.43,31.96,52.48,10.68,28.94,10.48,59.85-.23,88.64l-4.51,12.14c7.36-3.87,12.98-9.37,18.48-15.62ZM311.4,375.3c6-2.49,12.89-3.81,18.47-7.4,6.81-4.39,13.25-10.29,18.24-16.69,31.15-39.89,28.51-97.04-4.65-135.08-11.29,16.86-19.75,32.82-28.33,49.83-13.84,27.36-25.39,54.78-35.49,83.79-6.18,19.31-13.14,37.54-16.42,57.79,15.54-14.26,29.94-24.97,48.18-32.24Z"/>
    <path class="cls-1" d="M336.56,172.9c-55.01-32.63-126.54-20.45-166.36,30.34-21.7,27.67-32.35,64.07-28.79,99.53,4.15,41.3,26.98,75.98,60.96,100.82,2.38-8.55,2.42-16.07,1.77-24.63-1.9-25.29-31.44-34.58-33.82-89.01-.84-19.38,4.28-37.34,13.55-54.05,19.35-34.86,56.09-55.41,96.06-51.76,11.61,1.06,21.92,4.63,32.46,9.24,2.99,1.31,5.91,1.85,8.29,4.71-42.41,65.63-74.57,147.78-92.14,223.55-5.84,25.18-10.61,49.64-13.61,75.24l-3.55,30.21c-72.6-22.26-129.35-70.94-159.55-139.62-19.59-44.56-25.08-90.28-17.94-138.59,4.93-33.31,17.22-64.59,34.82-93.22,33.56-54.59,88.41-93.08,150.7-107.12,31.01-6.99,60.89-7.44,92.01-2.17,22.85,3.87,43.8,11.15,64.67,21.44,11.28,5.56,21.57,11.71,31.46,19.84l-27.57,29.58c-78.16-52.52-183.12-42.25-249.03,24.83-27.01,27.48-45.88,61.57-54.59,99.26-4.2,18.16-6.24,34.97-5.55,53.8,2.26,61.15,31.25,117.96,79.23,155.88,11.83,9.35,24.13,16.06,38.18,23.58l4.94-29.53c-18.82-11.54-35.31-24.06-49.45-40.9-23.15-27.58-38.21-61.09-42.42-97.17-5.07-43.43,7.26-85.51,31.32-121.22,5.34-7.92,10.75-15.04,17.54-21.54,10.93-10.47,18.87-18.01,32.16-25.8,20.17-11.83,41.28-20.52,64.62-23.63,40.25-5.36,80.67,2.84,114.15,25.36l-24.53,32.75Z"/>
    <path class="cls-1" d="M507.87,288.98c1.88-17.67,3.87-34,3.62-51.42-.75-53.06-20.1-113.14-60.34-150.7,7.94-7.08,15.25-13.47,23.41-19.39l32.7-23.7c31.83,69.49,46.77,147.91,38.74,224.23-17.99,1.35-25.1,8.35-38.13,20.98Z"/>
    <path class="cls-1" d="M311.4,375.3c-18.24,7.27-32.63,17.98-48.18,32.24,3.28-20.26,10.24-38.49,16.42-57.79,10.1-29,21.65-56.43,35.49-83.79,8.58-17.01,17.04-32.96,28.33-49.83,33.16,38.04,35.79,95.19,4.65,135.08-5,6.4-11.43,12.3-18.24,16.69-5.57,3.59-12.47,4.91-18.47,7.4Z"/>
    <path class="cls-1" d="M454.36,373.28c-8.46,10.93-23.03,25.11-35.43,31.8,7.92-9.24,13.35-18.62,18.66-29.29,6.42-12.91,12.27-25.05,16.01-39.27,18.76-71.34,4.89-149.47-50.45-201.8l17.2-18.37c3.12-3.33,5.83-6.05,9.49-9.11,31.97,28.75,48.45,75.02,51.73,117,2.91,37.14-1.69,73.81-13.3,109.02-7.43,22.53,2.36,18.99-13.92,40.01Z"/>
    <path class="cls-1" d="M405.69,328.35c-5.5,6.25-11.12,11.75-18.48,15.62l4.51-12.14c10.7-28.79,10.91-59.7.23-88.64-6.37-20.06-17.16-37.09-31.96-52.48,7.68-11.33,15.25-22,24.27-32.91,14.13,13.02,24.7,28.26,32.32,45.62,17.58,40.01,19.35,81.72,7.94,123.86l-11.38-7.4-7.46,8.47Z"/>
  </g>
</svg>
