<?xml version="1.0" encoding="UTF-8"?>
<svg xmlns="http://www.w3.org/2000/svg" viewBox="0 0 1957.37 408.64">
  <g id="Logo">
    <path d="M199.69,408.64h-.03c-.14-2.19.83-4.32,2.51-6.29,6.64-7.79,14.98-14.74,25.34-17.19,26.51-6.27,43.4-11.8,66.98-25.66,15.29-8.99,28.47-20.27,40.84-33.17,29.75-31.05,49.46-70.24,56.46-113.61-9.68,3.97-17.65,20.15-22.47,28.92-12.4,22.56-23.15,42.01-43.07,58.95-22.57,19.19-50.91,29.54-80.7,23.59-2.34-5.06,1.32-9.78,5.18-12.85,4.32-3.43,8.26-6.55,12.85-9.59,14.3-9.45,35.63-26.91,36.2-45.61-.91.56-2.43,1.61-3.21,2.52-18.1,21.16-50.06,21.69-74.05,36.05-28.5,17.07-41.68,42.96-47.33,74.92-2.09,11.85-2.27,23.33-2.78,35.35-.02.44-.5,1.75-.92,1.85s-1.57.14-2.08.03l-11.14-2.41c-10.67-2.31-20.59-5.93-30.7-9.93-14.15-5.6-26.83-12.77-39.53-21.26-30.04-20.08-53.12-48.07-68.87-80.63C5.17,263.7-1.38,229.64.24,197.59c1.72-33.95,12.94-68.21,30.79-97.22,9.5-15.44,22.7-30.66,36.15-42.84,25.69-23.25,63.15-41.41,97.78-46.26,50.07-9.12,104.99,5.08,145.27,36.6,14.89-13.63,30.32-25.22,46.72-36.14l17.62-11.72c20.62,37.09,35.01,84.79,40.34,126.77,2.06,16.24,2.53,41.89,1.5,58.05-4.16,65.72-30.84,125.99-80.2,170.03-25.96,23.16-56.98,39.04-90.68,47.55-12.45,3.14-24.22,4.64-36.85,5.15-3.12.13-6.41.39-9.01,1.1ZM242.8,124.15l17.76-23.7c-24.23-16.3-53.48-22.24-82.61-18.36-16.89,2.25-32.16,8.54-46.76,17.1-9.62,5.64-15.36,11.09-23.27,18.67-4.91,4.71-8.83,9.86-12.69,15.59-17.42,25.84-26.34,56.29-22.67,87.73,3.05,26.12,13.94,50.37,30.7,70.33,10.23,12.19,22.16,21.25,35.78,29.6l-3.58,21.37c-10.17-5.44-19.07-10.3-27.63-17.07-34.73-27.44-55.7-68.56-57.34-112.81-.5-13.63.97-25.79,4.01-38.94,6.31-27.28,19.97-51.95,39.51-71.84,47.7-48.54,123.67-55.98,180.23-17.97l19.95-21.41c-7.16-5.89-14.6-10.33-22.77-14.36-15.1-7.45-30.27-12.72-46.81-15.52-22.52-3.81-44.15-3.49-66.59,1.57-45.09,10.16-84.78,38.02-109.07,77.52-12.74,20.72-21.64,43.36-25.2,67.47-5.17,34.96-1.2,68.05,12.98,100.3,21.85,49.7,62.93,84.94,115.47,101.04l2.57-21.86c2.18-18.53,5.63-36.23,9.85-54.45,12.72-54.84,35.99-114.29,66.68-161.79-1.72-2.07-3.84-2.47-6-3.41-7.63-3.34-15.09-5.92-23.49-6.69-28.93-2.64-55.52,12.24-69.52,37.46-6.71,12.09-10.42,25.09-9.81,39.11,1.72,39.4,23.1,46.12,24.47,64.42.47,6.19.44,11.64-1.28,17.82-24.59-17.98-41.11-43.07-44.12-72.96-2.58-25.66,5.13-52,20.83-72.03,28.82-36.76,80.59-45.57,120.4-21.96ZM366.78,208.15c9.43-9.14,14.58-14.21,27.6-15.19,5.81-55.23-5-111.99-28.04-162.28l-23.66,17.15c-5.91,4.29-11.2,8.91-16.95,14.03,29.13,27.18,43.13,70.66,43.67,109.07.18,12.61-1.26,24.43-2.62,37.22ZM328.05,269.16c11.78-15.21,4.69-12.65,10.07-28.96,8.4-25.49,11.73-52.03,9.62-78.9-2.38-30.38-14.31-63.87-37.44-84.67-2.65,2.21-4.61,4.18-6.87,6.59l-12.45,13.29c40.05,37.87,50.09,94.41,36.51,146.04-2.71,10.29-6.94,19.08-11.58,28.42-3.84,7.73-7.77,14.51-13.51,21.2,8.97-4.84,19.52-15.1,25.64-23.02ZM292.83,236.65l5.4-6.13,8.24,5.35c8.26-30.5,6.98-60.68-5.74-89.64-5.52-12.57-13.17-23.6-23.39-33.02-6.53,7.9-12.01,15.62-17.57,23.82,10.71,11.14,18.52,23.47,23.13,37.98,7.73,20.94,7.58,43.31-.16,64.15l-3.27,8.79c5.32-2.8,9.39-6.78,13.37-11.3ZM224.58,270.63c4.34-1.8,9.33-2.76,13.37-5.36,4.93-3.18,9.59-7.44,13.2-12.08,22.54-28.87,20.63-70.23-3.36-97.76-8.17,12.2-14.29,23.75-20.5,36.06-10.02,19.8-18.38,39.65-25.69,60.64-4.47,13.97-9.51,27.17-11.88,41.83,11.25-10.32,21.67-18.07,34.87-23.33Z"/>
  </g>
  <g id="Text">
    <g id="Tanaste">
      <path d="M1841.93,207.49l.46,72.86c.08,12.73,9.63,21.98,21.19,24.33,30.63,6.23,62.85,1.54,92.96-4.13.59,5.02,1.85,12.26-.77,16.93-2.56,4.57-9.84,8.15-15.08,8.72-33.86,3.7-66.87,4.42-100.13-.54-21.39-5.08-36.01-22.16-36.01-44.61l-.04-201.51,145.97-.08c2.05,6.3.39,12.65-3.53,16.95-3.82,4.18-10.16,6.1-16.04,5.26l-88.82-.15-.16,84.77,80.99.13,8.9-1.25-.43,15.38c-3.73,3.22-8.33,6.77-13.54,6.78l-75.92.16Z"/>
      <path d="M1693.87,327.18l-37.75-.12.03-225.6-80.28-.1c-.54-5.52.17-10.9,2.8-14.74,2.7-3.94,8.48-7.04,14.22-7.04l180.38-.1c1.9,5.25,1.07,10.7-1.87,15.21-2,3.08-7.66,6.94-12.63,6.94h-64.97s.06,225.56.06,225.56Z"/>
      <path d="M1479.71,74.4h1.27c19.12,2.17,38.47,3.14,54.99,14.27,10.21,6.88,12.98,19.58,6.21,28.85-6.58,9-9.44-8.04-33.77-16.21-17.77-5.96-36.08-6.74-53.53.37-13.7,5.59-22.53,17.83-22.7,31.99-.17,13.66,7.09,26.57,19.7,33.38,27.61,14.92,49.14,20.06,73.85,34.76,27.28,16.23,38.67,46.31,30.66,77.33-5.61,21.72-22.12,38.63-43.85,46.11-20.96,7.21-42.52,7.34-64.68,4.11-20.67-3.02-41.06-11.32-53.94-28.27-4.4-5.79-.55-16.71,3.21-21.23,2.73-3.28,6.61-2.61,8.88-.06,21.46,24.16,54.09,33.83,85.35,26.75,18.19-4.12,30.18-18.34,30.47-37.15.12-8.02-1.23-15.84-5.7-22.59-6-9.06-14.26-15.71-24.1-20.11l-40.93-18.32c-10.25-4.59-19.93-8.77-28.98-15.31-30.47-22.02-34.86-64.28-9.69-92.41,12.75-14.25,30.02-21.7,49.34-24.28,6.18-.83,12.53-.42,17.96-1.98Z"/>
      <path d="M1325.75,308.42l-23.42-57.69-102.64-.02-25.91,65.95c-1.88,4.79-3.65,8.39-8.4,10.85-7.53.08-13.82.04-22.35-1.06l57.71-144.71,18.05-45.47,18.59-45.71,5.29-12.99c19.2-1.26,32.5,4.39,39.74,23.35l8.1,21.2,65.12,158.51,16.19,39.88c4.66,11.48-18.78,6.59-25.39,6.66-10.32-2.72-16.52-8.65-20.67-18.74ZM1295.04,230.2l-44.48-111.11-43.5,111.35,87.98-.24Z"/>
      <path d="M1110.86,88.02l-.08,229.31v9.71c-13.83,3.06-26.31-2.75-35.29-13.2-10.69-12.45-19.92-25.33-29.63-38.81l-48.3-65.44-61.14-81.23-.18,182.69c0,6.09-.33,10.62-.74,16.43l-24.44-.38V78.63c24.79-1.74,38.75,4.45,53.09,23.78l45.91,61.88,57.77,77.57,18.18,25.53.31-179.69c0-2.51,1.57-7.22,3.27-8.63,5.2-1.19,12.8-1.33,18.4.07,2.65.66,2.89,5.06,2.89,8.87Z"/>
      <path d="M832.38,310.65l-24.49-59.97-102,.09-24.49,62.56c-1.98,5.06-3.32,9.59-6.83,13.7-9.24.8-17.22,1.25-25.86-.87l64.78-162.6,23.53-58.91,10.49-27.08c12.88-.71,30.46,2.58,35.92,15.56l24.47,58.15,22.41,54.79,49.04,120.67c-19.47,2.4-38.94,3.55-46.96-16.08ZM800.45,230.23l-37.65-92.23c-2.11-5.99-4.27-11.43-7.04-16.86l-42.92,109.16,87.61-.07Z"/>
      <path d="M583.72,327.08l-37.15.08.02-225.44-78.31-.27c-1.89-4.65-.73-10.74,2.68-15.45,2.45-3.38,8.85-6.47,14.72-6.47h175.81c2.14,4.26,1.9,10.47-.91,14.55-2.14,3.11-7.68,7.47-12.66,7.47h-64.23s.03,225.52.03,225.52Z"/>
    </g>
  </g>
</svg>