<?xml version="1.0" encoding="UTF-8"?>
<svg xmlns="http://www.w3.org/2000/svg" viewBox="0 0 1915 416.18">
  <defs>
    <style>
      .cls-1 {
        fill: #fff;
      }
    </style>
  </defs>
  <g id="Layer_1_Image" data-name="Layer 1 Image">
    <g>
      <path class="cls-1" d="M203.64,416.18H0V0h425v416.18h-221.32c2.64-.72,5.98-.99,9.15-1.12,12.83-.52,24.79-2.04,37.44-5.23,34.24-8.64,65.75-24.77,92.13-48.31,50.15-44.75,77.26-105.98,81.48-172.75,1.04-16.42.57-42.47-1.53-58.98-5.42-42.65-20.04-91.12-40.99-128.8l-17.9,11.91c-16.66,11.09-32.34,22.87-47.47,36.72C275.06,17.61,219.26,3.18,168.39,12.45c-35.19,4.93-73.25,23.38-99.35,47-13.67,12.37-27.08,27.83-36.73,43.52C14.19,132.44,2.78,167.25,1.04,201.75c-1.65,32.56,5.01,67.17,19.24,96.58,16,33.07,39.45,61.52,69.97,81.92,12.9,8.62,25.79,15.91,40.17,21.6,10.27,4.06,20.35,7.74,31.19,10.08l11.32,2.45c.51.11,1.68.07,2.11-.03s.92-1.44.93-1.88c.52-12.21.7-23.88,2.83-35.92,5.73-32.47,19.13-58.77,48.08-76.11,24.37-14.59,56.84-15.13,75.23-36.63.8-.93,2.33-1.99,3.26-2.56-.58,19-22.25,36.74-36.78,46.34-4.67,3.08-8.67,6.26-13.06,9.74-3.92,3.11-7.64,7.91-5.27,13.05,30.26,6.05,59.06-4.47,81.99-23.97,20.24-17.21,31.16-36.96,43.76-59.89,4.9-8.91,12.99-25.35,22.82-29.38-7.11,44.06-27.14,83.88-57.36,115.42-12.56,13.11-25.95,24.57-41.49,33.7-23.96,14.08-41.11,19.7-68.05,26.07-10.52,2.49-19,9.55-25.74,17.46-1.71,2-2.69,4.16-2.55,6.39Z"/>
      <g>
        <path d="M203.68,416.18h-.03c-.14-2.23.84-4.39,2.55-6.39,6.75-7.91,15.22-14.97,25.74-17.46,26.94-6.37,44.09-11.99,68.05-26.07,15.54-9.13,28.93-20.59,41.49-33.7,30.22-31.54,50.25-71.37,57.36-115.42-9.84,4.03-17.93,20.47-22.82,29.38-12.6,22.92-23.52,42.68-43.76,59.89-22.93,19.49-51.72,30.02-81.99,23.97-2.38-5.14,1.34-9.94,5.27-13.05,4.39-3.48,8.39-6.66,13.06-9.74,14.53-9.6,36.2-27.34,36.78-46.34-.93.57-2.47,1.63-3.26,2.56-18.39,21.5-50.86,22.03-75.23,36.63-28.95,17.34-42.35,43.64-48.08,76.11-2.13,12.04-2.3,23.7-2.83,35.92-.02.45-.51,1.78-.93,1.88s-1.6.15-2.11.03l-11.32-2.45c-10.84-2.35-20.92-6.02-31.19-10.08-14.37-5.68-27.26-12.97-40.17-21.6-30.52-20.4-53.97-48.84-69.97-81.92C6.05,268.92-.61,234.31,1.04,201.75c1.74-34.49,13.15-69.3,31.28-98.77,9.65-15.69,23.06-31.15,36.73-43.52,26.1-23.63,64.16-42.07,99.35-47,50.87-9.27,106.67,5.16,147.6,37.18,15.13-13.85,30.81-25.63,47.47-36.72l17.9-11.91c20.95,37.68,35.57,86.14,40.99,128.8,2.1,16.5,2.57,42.56,1.53,58.98-4.22,66.77-31.33,128-81.48,172.75-26.38,23.54-57.89,39.66-92.13,48.31-12.65,3.19-24.61,4.71-37.44,5.23-3.17.13-6.51.39-9.15,1.12ZM247.47,127.13l18.04-24.08c-24.62-16.56-54.33-22.59-83.93-18.65-17.16,2.29-32.68,8.67-47.51,17.37-9.77,5.73-15.61,11.27-23.64,18.97-4.99,4.78-8.97,10.01-12.9,15.84-17.7,26.26-26.76,57.2-23.03,89.13,3.1,26.54,14.17,51.17,31.19,71.45,10.4,12.38,22.52,21.59,36.36,30.07l-3.63,21.71c-10.33-5.53-19.38-10.47-28.08-17.34-35.28-27.88-56.59-69.65-58.26-114.62-.51-13.85.99-26.21,4.08-39.56,6.41-27.71,20.29-52.78,40.14-72.99,48.46-49.32,125.65-56.87,183.11-18.25l20.27-21.75c-7.27-5.98-14.83-10.5-23.13-14.59-15.35-7.57-30.75-12.92-47.55-15.77-22.88-3.88-44.85-3.54-67.65,1.6-45.81,10.33-86.13,38.62-110.81,78.76-12.94,21.05-21.98,44.05-25.6,68.55-5.25,35.52-1.21,69.14,13.19,101.9,22.2,50.5,63.93,86.3,117.32,102.66l2.61-22.21c2.21-18.82,5.72-36.81,10.01-55.32,12.92-55.71,36.56-116.12,67.75-164.38-1.75-2.1-3.9-2.51-6.1-3.47-7.76-3.39-15.33-6.01-23.87-6.79-29.39-2.68-56.4,12.43-70.63,38.06-6.82,12.28-10.58,25.49-9.96,39.74,1.74,40.03,23.46,46.86,24.86,65.45.47,6.29.45,11.82-1.3,18.11-24.98-18.27-41.77-43.76-44.82-74.13-2.62-26.07,5.21-52.83,21.17-73.18,29.28-37.34,81.88-46.3,122.33-22.31ZM373.44,212.48c9.58-9.29,14.81-14.43,28.04-15.43,5.9-56.12-5.08-113.78-28.48-164.88l-24.04,17.43c-6.01,4.35-11.38,9.05-17.22,14.26,29.59,27.62,43.82,71.8,44.37,110.81.18,12.81-1.28,24.82-2.66,37.81ZM334.09,274.47c11.97-15.46,4.77-12.85,10.23-29.42,8.54-25.89,11.91-52.86,9.78-80.16-2.42-30.87-14.53-64.89-38.04-86.03-2.69,2.25-4.69,4.25-6.98,6.7l-12.65,13.5c40.69,38.48,50.89,95.92,37.1,148.38-2.75,10.45-7.05,19.38-11.77,28.88-3.91,7.85-7.9,14.74-13.72,21.54,9.12-4.92,19.83-15.35,26.05-23.38ZM298.3,241.43l5.48-6.23,8.37,5.44c8.39-30.98,7.09-61.66-5.84-91.07-5.61-12.77-13.38-23.98-23.77-33.55-6.63,8.02-12.2,15.87-17.85,24.2,10.88,11.32,18.82,23.84,23.5,38.59,7.86,21.28,7.7,44.01-.17,65.18l-3.32,8.93c5.41-2.84,9.54-6.89,13.59-11.48ZM228.97,275.96c4.41-1.83,9.48-2.8,13.58-5.44,5.01-3.23,9.74-7.56,13.41-12.27,22.9-29.33,20.96-71.35-3.42-99.32-8.3,12.4-14.52,24.13-20.83,36.64-10.18,20.12-18.67,40.28-26.1,61.61-4.54,14.2-9.66,27.6-12.07,42.5,11.43-10.49,22.02-18.36,35.42-23.71Z"/>
        <path class="cls-1" d="M247.47,127.13c-40.45-23.99-93.05-15.04-122.33,22.31-15.95,20.35-23.79,47.11-21.17,73.18,3.05,30.37,19.84,55.87,44.82,74.13,1.75-6.28,1.78-11.82,1.3-18.11-1.4-18.59-23.12-25.43-24.86-65.45-.62-14.25,3.15-27.46,9.96-39.74,14.23-25.63,41.24-40.74,70.63-38.06,8.53.78,16.11,3.4,23.87,6.79,2.2.96,4.35,1.36,6.1,3.47-31.19,48.26-54.83,108.66-67.75,164.38-4.29,18.51-7.8,36.5-10.01,55.32l-2.61,22.21c-53.38-16.36-95.11-52.16-117.32-102.66-14.41-32.76-18.44-66.38-13.19-101.9,3.62-24.49,12.66-47.49,25.6-68.55,24.68-40.14,65-68.44,110.81-78.76,22.8-5.14,44.77-5.47,67.65-1.6,16.8,2.85,32.21,8.2,47.55,15.77,8.29,4.09,15.86,8.61,23.13,14.59l-20.27,21.75c-57.47-38.62-134.65-31.06-183.11,18.25-19.86,20.21-33.73,45.27-40.14,72.99-3.09,13.35-4.59,25.71-4.08,39.56,1.66,44.97,22.98,86.74,58.26,114.62,8.7,6.87,17.74,11.81,28.08,17.34l3.63-21.71c-13.84-8.48-25.96-17.69-36.36-30.07-17.03-20.28-28.09-44.92-31.19-71.45-3.73-31.93,5.34-62.87,23.03-89.13,3.93-5.83,7.9-11.06,12.9-15.84,8.04-7.7,13.87-13.24,23.64-18.97,14.83-8.7,30.35-15.09,47.51-17.37,29.6-3.94,59.31,2.09,83.93,18.65l-18.04,24.08Z"/>
        <path class="cls-1" d="M373.44,212.48c1.39-13,2.84-25,2.66-37.81-.55-39.02-14.78-83.19-44.37-110.81,5.84-5.2,11.21-9.9,17.22-14.26l24.04-17.43c23.41,51.1,34.39,108.76,28.48,164.88-13.23,1-18.45,6.14-28.04,15.43Z"/>
        <path class="cls-1" d="M228.97,275.96c-13.41,5.35-24,13.22-35.42,23.71,2.41-14.9,7.53-28.3,12.07-42.5,7.43-21.33,15.92-41.49,26.1-61.61,6.31-12.51,12.53-24.24,20.83-36.64,24.38,27.97,26.32,69.99,3.42,99.32-3.67,4.7-8.41,9.04-13.41,12.27-4.1,2.64-9.17,3.61-13.58,5.44Z"/>
        <path class="cls-1" d="M334.09,274.47c-6.22,8.04-16.94,18.47-26.05,23.38,5.83-6.8,9.82-13.69,13.72-21.54,4.72-9.49,9.02-18.42,11.77-28.88,13.79-52.46,3.59-109.9-37.1-148.38l12.65-13.5c2.29-2.45,4.29-4.45,6.98-6.7,23.51,21.14,35.62,55.16,38.04,86.03,2.14,27.31-1.24,54.27-9.78,80.16-5.46,16.57,1.73,13.96-10.23,29.42Z"/>
        <path class="cls-1" d="M298.3,241.43c-4.04,4.59-8.18,8.64-13.59,11.48l3.32-8.93c7.87-21.17,8.02-43.9.17-65.18-4.68-14.75-12.62-27.27-23.5-38.59,5.65-8.33,11.22-16.18,17.85-24.2,10.39,9.57,18.16,20.78,23.77,33.55,12.92,29.42,14.23,60.09,5.84,91.07l-8.37-5.44-5.48,6.23Z"/>
      </g>
    </g>
  </g>
  <g id="Layer_2_Image" data-name="Layer 2 Image">
    <g id="Tanaste">
      <path d="M1802.95,233.76l.45,70.72c.08,12.36,9.35,21.33,20.57,23.61,29.73,6.04,61.01,1.5,90.24-4.01.57,4.87,1.79,11.9-.74,16.43-2.48,4.44-9.55,7.91-14.64,8.47-32.87,3.59-64.91,4.29-97.19-.52-20.77-4.93-34.95-21.51-34.96-43.3l-.04-195.6,141.69-.08c1.99,6.12.38,12.28-3.43,16.45-3.71,4.06-9.86,5.92-15.57,5.1l-86.22-.15-.16,82.28,78.62.13,8.64-1.21-.42,14.93c-3.62,3.13-8.09,6.57-13.14,6.58l-73.69.16Z"/>
      <path d="M1659.22,349.95l-36.64-.11.03-218.98-77.93-.1c-.52-5.36.16-10.58,2.72-14.31,2.62-3.82,8.23-6.83,13.81-6.84l175.09-.1c1.84,5.09,1.03,10.39-1.81,14.76-1.94,2.99-7.43,6.74-12.26,6.74h-63.07s.06,218.95.06,218.95Z"/>
      <path d="M1451.35,104.57h1.23c18.56,2.11,37.34,3.05,53.38,13.86,9.91,6.68,12.6,19.01,6.03,28-6.38,8.74-9.16-7.8-32.78-15.73-17.25-5.79-35.02-6.55-51.96.36-13.3,5.42-21.87,17.31-22.04,31.05-.17,13.26,6.88,25.79,19.12,32.4,26.8,14.48,47.7,19.47,71.69,33.74,26.48,15.76,37.54,44.96,29.76,75.06-5.44,21.08-21.47,37.5-42.56,44.76-20.34,7-41.27,7.13-62.79,3.99-20.06-2.93-39.86-10.99-52.36-27.44-4.27-5.62-.54-16.22,3.11-20.61,2.65-3.18,6.41-2.54,8.62-.06,20.83,23.45,52.5,32.84,82.85,25.96,17.65-4,29.3-17.8,29.57-36.06.12-7.78-1.19-15.37-5.53-21.92-5.83-8.79-13.84-15.25-23.39-19.52l-39.73-17.78c-9.95-4.45-19.35-8.51-28.13-14.86-29.57-21.38-33.84-62.4-9.4-89.7,12.38-13.83,29.14-21.06,47.89-23.57,6-.8,12.16-.4,17.43-1.92Z"/>
      <path d="M1301.9,331.74l-22.73-56-99.63-.02-25.15,64.02c-1.83,4.65-3.55,8.14-8.16,10.53-7.31.08-13.41.04-21.7-1.03l56.02-140.47,17.52-44.14,18.05-44.37,5.13-12.61c18.63-1.22,31.54,4.26,38.57,22.67l7.86,20.58,63.21,153.86,15.71,38.71c4.52,11.15-18.23,6.4-24.65,6.46-10.02-2.64-16.04-8.4-20.06-18.2ZM1272.09,255.81l-43.17-107.86-42.22,108.08,85.4-.23Z"/>
      <path d="M1093.31,117.79l-.08,222.59v9.42c-13.42,2.97-25.54-2.67-34.25-12.82-10.38-12.09-19.33-24.59-28.77-37.67l-46.88-63.53-59.35-78.85-.18,177.34c0,5.91-.32,10.3-.72,15.95l-23.73-.37V108.68c24.06-1.68,37.61,4.32,51.53,23.08l44.56,60.07,56.07,75.29,17.64,24.78.31-174.42c0-2.44,1.53-7.01,3.18-8.38,5.05-1.16,12.43-1.29,17.86.07,2.57.65,2.8,4.91,2.8,8.61Z"/>
      <path d="M822.99,333.9l-23.77-58.21-99.01.08-23.77,60.73c-1.92,4.91-3.22,9.31-6.63,13.3-8.97.77-16.71,1.21-25.1-.84l62.88-157.84,22.84-57.19,10.18-26.28c12.5-.69,29.57,2.51,34.87,15.1l23.76,56.44,21.75,53.18,47.6,117.13c-18.9,2.33-37.8,3.44-45.58-15.61ZM792,255.84l-36.55-89.53c-2.05-5.81-4.15-11.1-6.83-16.36l-41.66,105.96,85.04-.07Z"/>
      <path d="M581.62,349.85l-36.06.08.02-218.83-76.02-.26c-1.84-4.52-.71-10.43,2.61-14.99,2.38-3.29,8.59-6.28,14.29-6.28h170.65c2.07,4.13,1.84,10.16-.89,14.12-2.08,3.02-7.45,7.25-12.29,7.26h-62.34s.03,218.91.03,218.91Z"/>
    </g>
  </g>
</svg>
