<?xml version="1.0" encoding="UTF-8"?>
<svg id="Text" xmlns="http://www.w3.org/2000/svg" viewBox="0 0 1490 256.99">
  <g id="Tanaste">
    <path d="M1374.57,133.09l.46,72.86c.08,12.73,9.63,21.98,21.19,24.33,30.63,6.23,62.85,1.54,92.96-4.13.59,5.02,1.85,12.26-.77,16.93-2.56,4.57-9.84,8.15-15.08,8.72-33.86,3.7-66.87,4.42-100.13-.54-21.39-5.08-36.01-22.16-36.01-44.61l-.04-201.51,145.97-.08c2.05,6.3.39,12.65-3.53,16.95-3.82,4.18-10.16,6.1-16.04,5.26l-88.82-.15-.16,84.77,80.99.13,8.9-1.25-.43,15.38c-3.73,3.22-8.33,6.77-13.54,6.78l-75.92.16Z"/>
    <path d="M1226.5,252.79l-37.75-.12.03-225.6-80.28-.1c-.54-5.52.17-10.9,2.8-14.74,2.7-3.94,8.48-7.04,14.22-7.04l180.38-.1c1.9,5.25,1.07,10.7-1.87,15.21-2,3.08-7.66,6.94-12.63,6.94h-64.97s.06,225.56.06,225.56Z"/>
    <path d="M1012.34,0h1.27c19.12,2.17,38.47,3.14,54.99,14.27,10.21,6.88,12.98,19.58,6.21,28.85s-9.44-8.04-33.77-16.21c-17.77-5.96-36.08-6.74-53.53.37-13.7,5.59-22.53,17.83-22.7,31.99-.17,13.66,7.09,26.57,19.7,33.38,27.61,14.92,49.14,20.06,73.85,34.76,27.28,16.23,38.67,46.31,30.66,77.33-5.61,21.72-22.12,38.63-43.85,46.11-20.96,7.21-42.52,7.34-64.68,4.11-20.67-3.02-41.06-11.32-53.94-28.27-4.4-5.79-.55-16.71,3.21-21.23,2.73-3.28,6.61-2.61,8.88-.06,21.46,24.16,54.09,33.83,85.35,26.75,18.19-4.12,30.18-18.34,30.47-37.15.12-8.02-1.23-15.84-5.7-22.59-6-9.06-14.26-15.71-24.1-20.11l-40.93-18.32c-10.25-4.59-19.93-8.77-28.98-15.31-30.47-22.02-34.86-64.28-9.69-92.41,12.75-14.25,30.02-21.7,49.34-24.28,6.18-.83,12.53-.42,17.96-1.98Z"/>
    <path d="M858.39,234.03l-23.42-57.69-102.64-.02-25.91,65.95c-1.88,4.79-3.65,8.39-8.4,10.85-7.53.08-13.82.04-22.35-1.06l57.71-144.71,18.05-45.47,18.59-45.71,5.29-12.99c19.2-1.26,32.5,4.39,39.74,23.35l8.1,21.2,65.12,158.51,16.19,39.88c4.66,11.48-18.78,6.59-25.39,6.66-10.32-2.72-16.52-8.65-20.67-18.74ZM827.68,155.8l-44.48-111.11-43.5,111.35,87.98-.24Z"/>
    <path d="M643.49,13.62l-.08,229.31v9.71c-13.83,3.06-26.31-2.75-35.29-13.2-10.69-12.45-19.92-25.33-29.63-38.81l-48.3-65.44-61.14-81.23-.18,182.69c0,6.09-.33,10.62-.74,16.43l-24.44-.38V4.23c24.79-1.74,38.75,4.45,53.09,23.78l45.91,61.88,57.77,77.57,18.18,25.53.31-179.69c0-2.51,1.57-7.22,3.27-8.63,5.2-1.19,12.8-1.33,18.4.07,2.65.66,2.89,5.06,2.89,8.87Z"/>
    <path d="M365.02,236.25l-24.49-59.97-102,.09-24.49,62.56c-1.98,5.06-3.32,9.59-6.83,13.7-9.24.8-17.22,1.25-25.86-.87l64.78-162.6,23.53-58.91,10.49-27.08c12.88-.71,30.46,2.58,35.92,15.56l24.47,58.15,22.41,54.79,49.04,120.67c-19.47,2.4-38.94,3.55-46.96-16.08ZM333.09,155.84l-37.65-92.23c-2.11-5.99-4.27-11.43-7.04-16.86l-42.92,109.16,87.61-.07Z"/>
    <path d="M116.35,252.69l-37.15.08.02-225.44L.91,27.07c-1.89-4.65-.73-10.74,2.68-15.45,2.45-3.38,8.85-6.47,14.72-6.47h175.81c2.14,4.26,1.9,10.47-.91,14.55-2.14,3.11-7.68,7.47-12.66,7.47h-64.23s.03,225.52.03,225.52Z"/>
  </g>
</svg>